<?xml version="1.0" encoding="UTF-8"?>
<svg id="Capa_1" data-name="Capa 1" xmlns="http://www.w3.org/2000/svg" viewBox="0 0 451.88 366.9">
  <defs>
    <style>
      .cls-1 {
        fill: #a47b3e;
      }

      .cls-2 {
        fill: #dcc87e;
      }

      .cls-3 {
        fill: #bd9d5a;
      }

      .cls-4 {
        fill: #f1e797;
      }

      .cls-5 {
        fill: #ece091;
      }

      .cls-6 {
        fill: #dfcd81;
      }

      .cls-7 {
        fill: #b69352;
      }

      .cls-8 {
        fill: #9c6f34;
      }

      .cls-9 {
        fill: #ccb26b;
      }

      .cls-10 {
        fill: #e7d88b;
      }

      .cls-11 {
        fill: #95652c;
      }

      .cls-12 {
        fill: #d4bd75;
      }

      .cls-13 {
        fill: #c4a762;
      }

      .cls-14 {
        fill: #af8949;
      }

      .cls-15 {
        fill: #a98143;
      }
    </style>
  </defs>
  <path class="cls-4" d="m110.42,300.24c-1.55,1.13-3.07,2.31-4.67,3.37-1.25.83-2.51.2-3.73-.26.54-.86.44-1.81.44-2.75,0-37.38,0-74.75.01-112.13,0-1.02-.08-2-.39-2.97.52-.35,1.11-.63,1.54-1.07,2.14-2.17,4.43-1.74,6.81-.51,0,38.78,0,77.55,0,116.33Z"/>
  <path class="cls-13" d="m204.2,234.81c-2.37-5.23-4.52-10.56-6.5-15.95,1.27-.56.87-1.7.87-2.65.01-57.47.01-114.93.01-172.4,0-.38-.02-.76,0-1.14.03-.7-.2-1.23-.87-1.53,1.57-1.26,3.24-2.39,5-3.36.72.67.4,1.55.4,2.32.02,26.64.01,53.28.02,79.92,0,1.05-.23,2.17.77,2.97-1.21,5.33-2.33,10.69-3.67,15.99-.58,2.31-.42,4.35.52,6.55,1.64,3.8,3.38,7.57,4.64,11.53-.65,1.32-.76,2.73-.76,4.17,0,23.61,0,47.21,0,70.82,0,.94.11,1.9-.44,2.75Z"/>
  <path class="cls-3" d="m197.71,41.16c.67.29.9.83.87,1.53-.02.38,0,.76,0,1.14,0,57.47,0,114.93-.01,172.4,0,.95.39,2.09-.87,2.65-1.6-3.71-3.24-7.4-4.49-11.25,1.03-.77.83-1.88.83-2.94,0-43.71,0-87.41,0-131.12,0-9.02,0-18.04,0-27.06,0-.85.24-1.82-.84-2.29,1.4-1.17,2.94-2.15,4.53-3.04Z"/>
  <path class="cls-2" d="m123.26,291.31c-1.97,1.7-4.15,3.11-6.39,4.42-.68-.52-.45-1.27-.45-1.93,0-35.24,0-70.48-.02-105.72,0-.83.04-1.63.43-2.39,2.19.38,4.31.97,6.4,1.71,0,26.5,0,53,0,79.49,0,8.14.03,16.28.04,24.42Z"/>
  <path class="cls-3" d="m274.26,183.95c-.16,3.7-1.57,6.59-5.24,8,0-.88,0-1.76,0-2.65,0-36.67,0-73.34-.01-110,0-.88.38-1.95-.79-2.5.02-.25.05-.5.07-.75,1.21-.34.7-1.35.7-2.06.03-18.13.02-36.26.04-54.39,0-.77-.34-1.66.45-2.3,1.88,2.29,3.13,4.96,4.49,7.56-.58,1.68-.79,3.41-.79,5.17,0,37.31,0,74.63,0,111.94,0,11.8.01,23.59-.01,35.39,0,1.95.62,3.85.41,5.82-.05.44.25.68.68.75Z"/>
  <path class="cls-10" d="m116.88,185.69c-.39.75-.43,1.56-.43,2.39,0,35.24,0,70.48.02,105.72,0,.66-.22,1.41.45,1.93-1.98,1.78-4.28,3.09-6.51,4.51,0-38.77,0-77.55,0-116.33,2.21.4,4.37.95,6.47,1.77Z"/>
  <path class="cls-7" d="m274.26,183.95c-.43-.07-.73-.31-.68-.75.21-1.97-.42-3.86-.41-5.82.03-11.8.01-23.59.01-35.39,0-37.31,0-74.63,0-111.94,0-1.77.21-3.5.79-5.17,1.46,2.68,3.35,5.12,4.55,7.95-.97.71-.79,1.76-.79,2.75,0,42.34,0,84.67,0,127.01,0,.5.01,1.01,0,1.51,0,.63.35.9.92.98-1.13,5.8-2.65,11.51-4.06,17.25-.13.54-.22,1.08-.33,1.62Z"/>
  <path class="cls-7" d="m193.19,44.2c1.08.47.84,1.44.84,2.29,0,9.02,0,18.04,0,27.06,0,43.71,0,87.41,0,131.12,0,1.06.2,2.17-.83,2.94-1.68-3.3-2.92-6.78-4.15-10.26.7-.88.83-1.89.83-3-.02-45.82-.02-91.64,0-137.46,0-1.12-.23-2.09-.84-3,.13-2.64,1.02-5.12,1.65-7.64.29-1.15,1.47-1.59,2.48-2.06Z"/>
  <path class="cls-12" d="m123.26,291.31c-.01-8.14-.04-16.28-.04-24.42,0-26.5,0-53,0-79.49,2.03.56,4.06,1.12,6.09,1.68-.01,31.87-.02,63.75-.04,95.62,0,.77-.03,1.54.84,1.92-2.14,1.77-4.45,3.3-6.85,4.69Z"/>
  <path class="cls-13" d="m268.22,76.81c1.17.54.78,1.61.79,2.5.02,36.67.01,73.34.01,110,0,.88,0,1.76,0,2.65-1.38,1.19-2.9,2.16-4.5,3.02-1.15-.55-.81-1.6-.81-2.5-.01-30.57,0-61.15-.03-91.72,0-.81.44-1.8-.57-2.4.2-.98.38-1.97.62-2.94,1.49-6.2,2.99-12.4,4.48-18.61Z"/>
  <path class="cls-6" d="m94.81,302.02c-1.64-.37-3.35-.36-4.92-1.06,0-34.87,0-69.74-.01-104.6,0-.72.28-1.52-.35-2.16,1.66-1.32,3.4-2.53,5.26-3.55.55,2.04.4,4.12.4,6.19,0,31.73,0,63.47,0,95.2,0,3.33.27,6.67-.38,9.98Z"/>
  <path class="cls-8" d="m151.63,195.28c2.7.74,5.4,1.47,8.09,2.21-.82.75-.9,1.75-.9,2.76,0,21.05,0,42.11,0,63.16,0,1.02.09,2,.88,2.77-2.55,1.76-5.1,3.51-7.65,5.27-.66-.53-.42-1.28-.42-1.94,0-24.75,0-49.49,0-74.24Z"/>
  <path class="cls-14" d="m189.05,53.9c.61.91.84,1.88.84,3-.03,45.82-.03,91.64,0,137.46,0,1.11-.14,2.11-.83,3-1.66-3.21-2.82-6.62-4.07-9.99,1.26-1.04,1.08-2.53,1.08-3.89.03-12.87.02-25.73.02-38.6,0-23.21,0-46.42,0-69.63,0-1.6,0-3.21-1.03-4.59-.38-1.2.46-2.15.68-3.22.97-4.54,1.83-9.11,3.32-13.53Z"/>
  <path class="cls-14" d="m278.65,165.09c-.57-.07-.93-.35-.92-.98,0-.5,0-1.01,0-1.51,0-42.34,0-84.67,0-127.01,0-1-.18-2.04.79-2.75,1.35,2.57,3.28,4.81,4.2,7.61-1.35.32-.8,1.43-.8,2.18-.03,23.78-.02,47.56-.02,71.33,0,10.66-.01,21.32.02,31.98,0,.71-.52,1.72.71,2.05-.99,4.46-1.83,8.95-3.21,13.32-.39,1.22-.51,2.52-.76,3.78Z"/>
  <path class="cls-9" d="m263.12,98.35c1.01.6.57,1.59.57,2.4.02,30.57.02,61.15.03,91.72,0,.89-.35,1.95.81,2.5-1.7,1.58-3.85,2.49-5.71,3.83-.53-.86-.41-1.82-.41-2.76,0-24.19,0-48.39-.02-72.58,0-.81.44-1.8-.58-2.4,1.77-7.57,3.54-15.14,5.3-22.72Z"/>
  <path class="cls-12" d="m89.53,194.19c.63.63.35,1.44.35,2.16.01,34.87.01,69.74.01,104.6-1.7-.14-3.35-.51-4.98-.98.47-.8.45-1.68.44-2.57,0-10.6,0-21.19,0-31.79,0-21.89,0-43.77-.01-65.66,0-.84.32-1.82-.72-2.35,1.64-1.14,3.28-2.27,4.92-3.41Z"/>
  <path class="cls-10" d="m94.87,302.02c.65-3.31.37-6.65.38-9.98.02-31.73.01-63.47,0-95.2,0-2.07.15-4.16-.4-6.19,1.24-1.2,2.69-2.09,4.18-2.92.5.8.39,1.7.39,2.58,0,37.52,0,75.04,0,112.56-1.58.05-3.05-.44-4.55-.83Z"/>
  <path class="cls-13" d="m130.32,286.62c-.87-.38-.84-1.15-.84-1.92.01-31.87.02-63.75.04-95.62,1.63.46,3.26.91,4.9,1.37,0,30.19,0,60.39,0,90.58,0,.44,0,.88.01,1.32,0,.55.35.77.84.84-1.54,1.3-3.2,2.42-4.94,3.43Z"/>
  <path class="cls-15" d="m185.05,70.65c1.03,1.38,1.03,2.99,1.03,4.59,0,23.21,0,46.42,0,69.63,0,12.87.01,25.73-.02,38.6,0,1.36.18,2.85-1.08,3.89-1.42-3.18-2.8-6.38-3.89-9.69.68-.65.84-1.43.84-2.37-.02-28.26-.02-56.53,0-84.79,0-.99-.14-1.85-.86-2.56.03-2.6,1.05-5,1.61-7.48.74-3.28,1.28-6.61,2.36-9.82Z"/>
  <path class="cls-1" d="m56.89,216.75c1.77-1.22,3.55-2.43,5.32-3.65,1.04.17.79.99.79,1.63,0,26.28,0,52.56,0,78.83,0,.68.14,1.42-.59,1.87-1.95-.19-3.85-.61-5.74-1.1.91-.53.65-1.43.65-2.21.01-24.33,0-48.66.01-72.99,0-.83-.02-1.64-.44-2.38Z"/>
  <path class="cls-12" d="m270.64,325.27c-1.43,1.5-2.96,2.88-4.66,4.08-.58-.49-.37-1.17-.37-1.77,0-33.53,0-67.06,0-100.6,1.51.34,3.03.67,4.54,1.01,0,31.79,0,63.58,0,95.37,0,.66-.22,1.41.48,1.92Z"/>
  <path class="cls-14" d="m62.42,295.44c.73-.46.59-1.19.59-1.87,0-26.28,0-52.56,0-78.83,0-.64.26-1.47-.79-1.63,1.79-1.46,3.71-2.74,5.68-3.93.63,4.51.41,9.04.41,13.56.01,22.37,0,44.74,0,67.1,0,2.26.15,4.53-.4,6.75-1.85-.26-3.71-.53-5.49-1.14Z"/>
  <path class="cls-15" d="m282.63,147.99c-1.23-.33-.71-1.34-.71-2.05-.03-10.66-.02-21.32-.02-31.98,0-23.78,0-47.56.02-71.33,0-.76-.56-1.86.8-2.18,1.64,2.29,3.06,4.72,4.35,7.22-.9.24-.62.99-.62,1.57-.01,26.1-.01,52.19,0,78.29,0,.58-.26,1.33.66,1.54-1.49,6.31-2.98,12.62-4.48,18.93Z"/>
  <path class="cls-13" d="m76.61,203.17c1.16-1,2.39-1.89,3.76-2.59.98.43.82,1.31.82,2.12,0,32.17-.01,64.35-.02,96.52-1.53-.21-3.07-.37-4.53-.93,0-6.49,0-12.99,0-19.48,0-25.22-.02-50.43-.03-75.65Z"/>
  <path class="cls-9" d="m270.64,325.27c-.7-.5-.48-1.25-.48-1.92,0-31.79,0-63.58,0-95.37,1.95.03,3.06.98,3.55,2.91.43,1.69,1.45,3.19,1.77,4.93-1.26.29-.76,1.31-.76,2.02-.03,16.08-.02,32.17-.02,48.25,0,10.97,0,21.95.02,32.92,0,.71-.5,1.73.76,2.02-1.43,1.62-3.13,2.94-4.84,4.24Z"/>
  <path class="cls-9" d="m203.9,123.01c-1-.79-.77-1.92-.77-2.97,0-26.64,0-53.28-.02-79.92,0-.78.33-1.65-.4-2.32,1.66-1.34,3.4-2.57,5.3-3.55,0,1.7.45,3.34.45,5.06-.05,19.98-.03,39.95-.01,59.93,0,.76-.38,1.67.54,2.23-1.56,7.22-3.16,14.42-5.08,21.55Z"/>
  <path class="cls-9" d="m81.16,299.22c0-32.17.01-64.35.02-96.52,0-.81.17-1.69-.82-2.12,1.3-1.16,2.78-2.06,4.25-2.98,1.05.53.72,1.52.72,2.35.01,21.89.01,43.77.01,65.66,0,10.6,0,21.19,0,31.79,0,.89.03,1.77-.44,2.57-1.26-.17-2.54-.3-3.74-.76Z"/>
  <path class="cls-13" d="m269.48,17.32c-.79.64-.45,1.52-.45,2.3-.02,18.13,0,36.26-.04,54.39,0,.71.51,1.71-.7,2.06-2.28-4.04-4.57-8.08-6.85-12.12,1.07-.51.75-1.5.75-2.33.01-17.97,0-35.95.03-53.92,0-.71-.52-1.72.72-2.05,2.21,3.88,4.65,7.63,6.54,11.68Z"/>
  <path class="cls-14" d="m142.15,192.67c1.7.26,3.35.74,4.97,1.3-.01,26.97-.02,53.94-.03,80.91-1.34,1.27-3,2.09-4.5,3.12-.52-.86-.44-1.81-.44-2.76,0-27.53,0-55.05,0-82.58Z"/>
  <path class="cls-6" d="m337.9,308.06c.72-.62.76-1.3.32-2.14-.31-.6-.44-1.29-.65-1.95.91-.76.75-1.8.75-2.8,0-19.02,0-38.04,0-57.06,1.3.11,2.56.37,3.78.84,0,32.79,0,65.57,0,98.36,0,2.21.03,4.41.04,6.62-.99,1.43-2.55,2.24-3.79,3.4-.02-14.04-.04-28.08-.03-42.12,0-1.08-.09-2.13-.43-3.15Z"/>
  <path class="cls-6" d="m265.62,226.98c0,33.53,0,67.06,0,100.6,0,.6-.21,1.28.37,1.77-.9,1.27-2.26,2.04-3.41,3.03-1.06-.52-.74-1.5-.74-2.34-.01-33.79,0-67.58-.02-101.38,0-.9.12-1.75.4-2.59,1.14.3,2.28.61,3.42.91Z"/>
  <path class="cls-3" d="m76.61,203.17c.01,25.22.02,50.43.03,75.65,0,6.49,0,12.99,0,19.48-1.59-.08-3.11-.49-4.64-.88.34-.69.48-1.41.48-2.19-.01-28.75-.01-57.5,0-86.25,0-.9-.03-1.77-.86-2.37,1.57-1.28,3.22-2.46,4.99-3.44Z"/>
  <path class="cls-12" d="m349.78,343.05c-1.06,1.4-2.59,2.29-3.84,3.47-.43-.74-.44-1.55-.44-2.38,0-32.8.01-65.59.01-98.39,1.28.27,2.59.43,3.8.99,0,31.53-.01,63.06-.02,94.58,0,.61-.17,1.29.48,1.72Z"/>
  <path class="cls-7" d="m71.62,206.61c.83.59.86,1.46.86,2.37,0,28.75,0,57.5,0,86.25,0,.78-.14,1.5-.48,2.19-1.37-.28-2.73-.56-4.1-.83.55-2.23.4-4.49.4-6.75,0-22.37,0-44.74,0-67.1,0-4.52.21-9.05-.41-13.56,1.17-.96,2.36-1.88,3.73-2.55Z"/>
  <path class="cls-7" d="m142.15,192.67c0,27.53,0,55.05,0,82.58,0,.94-.08,1.9.44,2.76-1.21,1.26-2.93,1.76-4.22,2.9-.13-.74-.37-1.48-.37-2.22-.02-28.19-.02-56.38-.02-84.57,0-.91.08-1.77.95-2.32,1.12.11,2.21.34,3.22.87Z"/>
  <path class="cls-9" d="m349.78,343.05c-.65-.44-.48-1.11-.48-1.72,0-31.53,0-63.06.02-94.58,4.02.14,3.69,3.72,4.85,6.13-1.52-.04-1.07,1.12-1.07,1.89-.02,27.52-.01,55.04-.02,82.55,0,.82,0,1.64.43,2.38-1.11,1.27-2.39,2.34-3.73,3.36Z"/>
  <path class="cls-15" d="m147.09,274.88c.01-26.97.02-53.94.03-80.91,1.43.66,3.11.5,4.5,1.31,0,24.75,0,49.49,0,74.24,0,.66-.24,1.41.42,1.94-1.55,1.3-3.21,2.43-4.96,3.43Z"/>
  <path class="cls-12" d="m257.82,121.07c1.02.6.58,1.59.58,2.4.02,24.19.02,48.39.02,72.58,0,.94-.12,1.9.41,2.76-1.54,1.28-3.22,2.34-4.95,3.34-.32-1.03-.39-2.08-.39-3.16.02-18.14.01-36.28.01-54.42,0-.94.12-1.9-.45-2.75,1.32-6.98,3.04-13.87,4.77-20.75Z"/>
  <path class="cls-5" d="m99.42,302.85c0-37.52,0-75.04,0-112.56,0-.88.12-1.77-.39-2.58.85-.96,2.02-1.49,3.04-2.22.31.97.39,1.95.39,2.97-.01,37.38-.01,74.75-.01,112.13,0,.94.1,1.9-.44,2.75-.85-.26-1.82.15-2.59-.5Z"/>
  <path class="cls-2" d="m345.52,245.75c0,32.8,0,65.59-.01,98.39,0,.83,0,1.64.44,2.38-1.06,1.36-2.56,2.23-3.8,3.41-.02-2.21-.04-4.41-.04-6.62,0-32.79,0-65.57,0-98.36,1.14.27,2.28.53,3.41.8Z"/>
  <path class="cls-10" d="m262.2,226.06c-.27.84-.4,1.69-.4,2.59.01,33.79.01,67.58.02,101.38,0,.84-.32,1.82.74,2.34-1.03,1.31-2.46,2.14-3.73,3.17-.36-1.09-.45-2.2-.45-3.34,0-14.23-.01-28.47-.03-42.7.83-.69.89-1.46.37-2.41-.34-.62-.48-1.36-.7-2.05,1.05-.52.74-1.51.74-2.34.01-19.14.01-38.28.01-57.42,1.14.26,2.27.52,3.41.78Z"/>
  <path class="cls-3" d="m139.15,191.8c-.87.55-.95,1.41-.95,2.32,0,28.19,0,56.38.02,84.57,0,.74.24,1.48.37,2.22-.88,1.09-2.33,1.36-3.32,2.29-.48-.08-.83-.3-.84-.84,0-.44-.01-.88-.01-1.32,0-30.19,0-60.39,0-90.58,1.54.59,3.25.56,4.73,1.35Z"/>
  <path class="cls-1" d="m181.07,87.94c.72.71.86,1.57.86,2.56-.02,28.26-.02,56.53,0,84.79,0,.94-.16,1.72-.84,2.37-1.72-3.31-2.91-6.85-4.19-10.34,1.27-.23.84-1.25.84-1.97.02-10.78.02-21.55.02-32.33,0-8.51,0-17.01-.02-25.52,0-.73.42-1.74-.84-1.96,1.18-5.92,2.42-11.82,4.18-17.61Z"/>
  <path class="cls-9" d="m262.94,5.64c-1.23.32-.72,1.34-.72,2.05-.03,17.97-.02,35.95-.03,53.92,0,.84.31,1.82-.75,2.33-1.97-3.02-3.75-6.15-5.35-9.37.46-.73.43-1.55.43-2.37,0-16.03,0-32.07,0-48.1,0-.75.07-1.51-.35-2.2q3.26-2.66,5.3.91c.53.92.98,1.89,1.47,2.83Z"/>
  <path class="cls-4" d="m326.94,241.21c2.41.61,4.81,1.22,7.22,1.84,0,16.01,0,32.02-.01,48.03,0,.84.3,1.82-.78,2.32-1.63-3.99-3.3-7.97-4.89-11.97-.81-2.03-1.82-3.99-2.31-6.14.5-.8.41-1.69.41-2.57,0-9.57,0-19.15-.01-28.72,0-.95.1-1.87.38-2.78Z"/>
  <path class="cls-9" d="m204.2,234.81c.55-.85.44-1.81.44-2.75,0-23.61,0-47.21,0-70.82,0-1.44.11-2.85.76-4.17,1.64,3.44,2.99,7,4.29,10.58-.77.47-.49,1.23-.5,1.89-.03,2.58-.01,5.17-.01,7.76.02,18.29.03,36.57.05,54.86-1.39,1.13-2.87,2.12-4.46,2.96-.17-.01-.33-.03-.5-.04-.07-.07-.09-.16-.08-.26Z"/>
  <path class="cls-8" d="m56.89,216.75c.42.74.44,1.55.44,2.38,0,24.33,0,48.66-.01,72.99,0,.78.27,1.68-.65,2.21-1.3-.21-2.59-.43-3.89-.64.13-1.05.37-2.11.37-3.16.02-22.75.02-45.49.02-68.24,0-.9,0-1.78-.81-2.39,1.51-1.05,3.02-2.1,4.54-3.16Z"/>
  <path class="cls-13" d="m353.51,339.69c-.44-.74-.44-1.55-.43-2.38,0-27.52,0-55.04.02-82.55,0-.77-.45-1.92,1.07-1.89,1.14,2.9,2.28,5.81,3.41,8.71-1.13.28-.69,1.21-.7,1.87-.02,23.62-.02,47.23,0,70.85,0,.66-.24,1.41.46,1.92-1.28,1.16-2.55,2.31-3.83,3.47Z"/>
  <path class="cls-13" d="m275.48,321.03c-1.26-.29-.76-1.31-.76-2.02-.03-10.97-.02-21.95-.02-32.92,0-16.08,0-32.17.02-48.25,0-.71-.5-1.73.76-2.02,1.32,2.8,2.5,5.66,3.43,8.62-.45.74-.43,1.56-.43,2.38,0,23.09,0,46.18.01,69.27,0,.66-.25,1.41.43,1.93-1.01,1.16-2.15,2.17-3.45,3Z"/>
  <path class="cls-1" d="m287.1,129.06c-.92-.21-.66-.96-.66-1.54,0-26.1-.01-52.19,0-78.29,0-.57-.28-1.32.62-1.57,1.42,2.52,2.85,5.05,4.27,7.57-.62,1.06-.74,2.22-.74,3.42,0,15.63,0,31.27,0,46.9,0,1.46.28,2.86.78,4.22-.08,3.04-1.2,5.87-1.81,8.81-.73,3.51-1.63,6.97-2.46,10.46Z"/>
  <path class="cls-12" d="m208.99,101.46c-.93-.56-.54-1.47-.54-2.23-.02-19.98-.03-39.95.01-59.93,0-1.72-.45-3.36-.45-5.06,1.53-1.25,3.14-2.37,4.9-3.29.75.65.43,1.53.43,2.31.02,14.34.02,28.67.01,43.01,0,1.13-.03,2.26.77,3.2-1.54,7.37-3.22,14.71-5.13,21.99Z"/>
  <path class="cls-2" d="m253.04,141.82c.56.85.45,1.81.45,2.75,0,18.14,0,36.28-.01,54.42,0,1.08.07,2.13.39,3.16-1.78,1.43-3.71,2.63-5.65,3.8-.68-.61-.39-1.42-.39-2.14-.02-11.1-.01-22.2-.01-33.3,0-1.13.04-2.27-.78-3.2.77-3.5,1.47-7.01,2.33-10.48,1.24-4.99,2.09-10.08,3.68-14.99Z"/>
  <path class="cls-4" d="m326.55,317.97c2.28-2.27,4.75-4.33,7.24-6.36,0,14.46-.01,28.92-.01,43.38,0,.74-.17,1.55.71,1.98-2.26,2.3-4.66,4.44-7.15,6.47,0-14.23,0-28.46,0-42.68,0-1,.15-2.04-.78-2.78Z"/>
  <path class="cls-4" d="m229.22,20c2.65-2.08,5.49-3.9,8.37-5.63,0,11.11,0,22.21,0,33.32,0,.95-.09,1.91.74,2.62-2.64,1.92-5.26,3.87-8.18,5.37-.84-.6-.49-1.5-.49-2.26-.02-10.43,0-20.85-.03-31.28,0-.72.29-1.52-.4-2.13Z"/>
  <path class="cls-11" d="m52.36,219.9c.81.61.81,1.5.81,2.39,0,22.75,0,45.49-.02,68.24,0,1.05-.24,2.11-.37,3.16-2.12.06-2.68-.9-2.71-3.05-.2-14.54-.49-29.09-1.04-43.62-.3-7.81-.3-15.63-.47-23.45-.02-.86.22-1.41.96-1.84.97-.56,1.9-1.21,2.84-1.82Z"/>
  <path class="cls-12" d="m209.23,232.15c-.02-18.29-.03-36.57-.05-54.86,0-2.59-.02-5.17.01-7.76,0-.65-.27-1.42.5-1.89,1.75,3.69,3.18,7.52,4.61,11.35-.75.36-.57,1.06-.57,1.66,0,16.15.02,32.29.03,48.44-1.42,1.16-2.93,2.18-4.53,3.06Z"/>
  <path class="cls-4" d="m250.46,223.35c1.84.09,3.55.74,5.31,1.19,0,4.22,0,8.44,0,12.66,0,12.66,0,25.31-.02,37.97,0,.72.43,1.74-.83,1.97-1.94-4.35-3.72-8.76-5.27-13.26,1.26-.26.79-1.28.79-1.99.03-12.84.02-25.69.02-38.53Z"/>
  <path class="cls-11" d="m159.7,266.18c-.79-.76-.88-1.75-.88-2.77,0-21.05,0-42.11,0-63.16,0-1.02.09-2.01.9-2.76.47.15.95.48,1.4.43,1.57-.15,1.53.81,1.52,1.9-.03,2.96-.01,5.93-.01,8.89,0,17.34-.06,34.68.06,52.02.02,2.59-.38,4.51-2.98,5.45Z"/>
  <path class="cls-7" d="m282.72,254.35c1.8,3.54,3.23,7.24,4.48,11-.87.59-.76,1.49-.76,2.37,0,13.59,0,27.17,0,40.76,0,.89.04,1.76.46,2.56-1.4,1.5-2.95,2.82-4.59,4.04-.34-1.09-.43-2.2-.43-3.35.03-5.99.01-11.97.01-17.96,0-12.48,0-24.96.02-37.43,0-.72-.45-1.74.81-1.99Z"/>
  <path class="cls-12" d="m256.17,1.9c.42.68.35,1.45.35,2.2,0,16.03,0,32.07,0,48.1,0,.82.03,1.64-.43,2.37-2.12-3.18-3.96-6.52-5.69-9.93,1.18-.19.8-1.13.8-1.8.02-11.79.02-23.57,0-35.36,0-.66.25-1.41-.48-1.91,1.66-1.45,3.51-2.62,5.44-3.68Z"/>
  <path class="cls-4" d="m238.01,212.77c-2.27,1.85-4.74,3.38-7.24,4.89,0-11.07,0-22.13,0-33.2,0-.99.16-2.04-.77-2.78,2.4-1.63,4.81-3.26,7.21-4.88.51,2.98.37,5.99.37,8.99,0,8.29,0,16.57.02,24.86,0,.72-.29,1.53.41,2.12Z"/>
  <path class="cls-4" d="m191.37,250.58c1.64-1.14,3.29-2.27,4.93-3.41,0,17.68,0,35.37.01,53.05-1.14,1.53-2.7,2.57-4.19,3.69-.31-.97-.38-1.96-.38-2.97.01-16.07.01-32.15,0-48.22,0-.72.29-1.53-.38-2.14Z"/>
  <path class="cls-2" d="m214.12,79.47c-.8-.94-.77-2.07-.77-3.2,0-14.34,0-28.67-.01-43.01,0-.78.32-1.65-.43-2.31,1.78-1.42,3.66-2.71,5.67-3.79.73.58.44,1.4.44,2.12.02,10.34.02,20.68,0,31.02,0,.95.07,1.88.38,2.78-1.6.79-1.91,2.3-2.26,3.85-.97,4.19-2.01,8.36-3.02,12.53Z"/>
  <path class="cls-10" d="m333.36,293.39c1.07-.5.78-1.48.78-2.32.01-16.01.01-32.02.01-48.03,1.43.21,2.84.46,4.17,1.07,0,19.02,0,38.04,0,57.06,0,1,.16,2.04-.75,2.8-1.61-3.44-3.05-6.96-4.2-10.59Z"/>
  <path class="cls-3" d="m282.72,254.35c-1.26.25-.81,1.27-.81,1.99-.03,12.48-.02,24.96-.02,37.43,0,5.99.01,11.97-.01,17.96,0,1.14.09,2.26.43,3.35-1.04,1.08-2.09,2.15-3.38,2.94-.68-.52-.43-1.27-.43-1.93-.01-23.09,0-46.18-.01-69.27,0-.82-.03-1.64.43-2.38,1.23,3.32,3.08,6.4,3.81,9.91Z"/>
  <path class="cls-6" d="m225.99,220.76c-2.17,1.81-4.47,3.43-6.97,4.76,0-10.77,0-21.54.01-32.3,0-1.5.1-3.01-.76-4.35.72.21,1.18-.27,1.71-.6,1.69-1.09,3.4-2.16,5.09-3.24.46.81.39,1.69.39,2.57,0,10.3,0,20.61.01,30.91,0,.77-.35,1.66.51,2.26Z"/>
  <path class="cls-4" d="m250.07,296.76c1.42-1.63,3.07-2.98,4.85-4.19.74.58.45,1.4.45,2.11.02,13.61.01,27.22.01,40.83,0,.88-.12,1.77.39,2.57-1.34,1.84-3.14,3.18-4.93,4.52-.51-.8-.38-1.7-.38-2.58,0-13.37,0-26.73,0-40.1,0-1.08-.07-2.13-.4-3.16Z"/>
  <path class="cls-2" d="m218.27,188.87c.86,1.34.76,2.85.76,4.35-.01,10.77,0,21.54-.01,32.3-1.64,1.35-3.38,2.57-5.26,3.57-.01-16.15-.03-32.29-.03-48.44,0-.6-.18-1.3.57-1.66,1.43,3.25,2.87,6.49,3.97,9.87Z"/>
  <path class="cls-2" d="m243.27,348.26c-1.83-.12-3.57-.7-5.32-1.19,0-12.53.01-25.05,0-37.58,0-.6.2-1.28-.4-1.76,1.61-1.73,3.4-3.25,5.31-4.65.36,1.16.42,2.34.42,3.54-.02,13.88-.01,27.75-.01,41.63Z"/>
  <path class="cls-7" d="m360.66,269.53c1.22,3.03,2.45,6.06,3.67,9.09-1.07.36-.62,1.27-.62,1.94-.03,15.75-.02,31.51-.01,47.26,0,.66-.25,1.41.42,1.93-.83,1.65-2.41,2.54-3.74,3.68-.16-1.43-.46-2.86-.46-4.29-.03-18.46-.02-36.92-.02-55.38,0-1.46.29-2.86.76-4.22Z"/>
  <path class="cls-3" d="m360.66,269.53c-.47,1.37-.76,2.77-.76,4.22,0,18.46,0,36.92.02,55.38,0,1.43.3,2.86.46,4.29-.87,1.09-1.94,1.95-3.04,2.78-.7-.5-.46-1.26-.46-1.92-.01-23.62-.01-47.23,0-70.85,0-.66-.44-1.59.7-1.87.9,2.7,2.39,5.17,3.07,7.95Z"/>
  <path class="cls-10" d="m247.03,167.3c.82.93.78,2.07.78,3.2,0,11.1,0,22.2.01,33.3,0,.72-.29,1.53.39,2.14-1.67,1.6-3.78,2.53-5.67,3.79-.69-.6-.4-1.41-.41-2.13-.02-9.43-.02-18.86,0-28.29,0-1.88.07-3.76-.39-5.61,2.4-1.61,5.08-2.99,5.29-6.42Z"/>
  <path class="cls-8" d="m176.89,105.55c1.27.23.84,1.24.84,1.96.03,8.51.02,17.01.02,25.52,0,10.78,0,21.55-.02,32.33,0,.72.43,1.74-.84,1.97-1.53-3.05-2.64-6.26-3.85-9.45,1.13-.15.91-1.02.91-1.74,0-10.82,0-21.63,0-32.45,0-.95-.12-1.87-.81-2.61,1.12-5.21,2.23-10.42,3.73-15.54Z"/>
  <path class="cls-10" d="m334.49,356.96c-.88-.43-.71-1.24-.71-1.98,0-14.46,0-28.92.01-43.38,1.39-1.16,2.49-2.65,4.11-3.54.34,1.02.43,2.07.43,3.15,0,14.04.02,28.08.03,42.12-1.11,1.4-2.49,2.52-3.88,3.63Z"/>
  <path class="cls-8" d="m291.37,109.79c-.5-1.36-.78-2.77-.78-4.22,0-15.63,0-31.27,0-46.9,0-1.2.12-2.36.74-3.42,1.43,2.51,2.87,5.01,4.3,7.52-1.02.13-.87.91-.87,1.58,0,8.83,0,17.65,0,26.48,0,.58-.23,1.33.7,1.5.11,2.72-1.13,5.17-1.61,7.77-.53,2.86-1.41,5.67-1.98,8.55-.08.4-.02.9-.51,1.14Z"/>
  <path class="cls-9" d="m237.55,307.74c.6.48.4,1.15.4,1.76,0,12.53,0,25.05,0,37.58-1.9-.42-3.85-.67-5.66-1.45.57-.49.37-1.17.37-1.77.01-9.68,0-19.35.02-29.03,0-.83-.08-1.63-.46-2.37,1.61-1.77,3.44-3.29,5.35-4.72Z"/>
  <path class="cls-15" d="m286.89,311.04c-.42-.81-.46-1.67-.46-2.56.01-13.59,0-27.17,0-40.76,0-.88-.11-1.78.76-2.37,1.57,4.06,3.5,7.98,4.85,12.13-.93.19-.68.94-.68,1.51-.01,8.73,0,17.46,0,26.19,0,.56-.09,1.15.49,1.52-1.46,1.67-3.32,2.88-4.97,4.33Z"/>
  <path class="cls-6" d="m219.4,63.08c-.32-.9-.38-1.83-.38-2.78.02-10.34.02-20.68,0-31.02,0-.72.29-1.54-.44-2.12,1.79-1.46,3.72-2.71,5.74-3.84,0,10.99.02,21.97,0,32.96,0,1.08.08,2.12.4,3.15-1.67,1.37-3.47,2.55-5.32,3.66Z"/>
  <path class="cls-5" d="m225.99,220.76c-.86-.59-.51-1.49-.51-2.26-.02-10.3-.02-20.61-.01-30.91,0-.88.08-1.76-.39-2.57,1.49-1.33,3.2-2.35,4.92-3.35.92.74.77,1.79.77,2.78,0,11.07,0,22.13,0,33.2-1.51,1.16-3.01,2.34-4.78,3.1Z"/>
  <path class="cls-5" d="m224.72,59.42c-.33-1.02-.4-2.07-.4-3.15.01-10.99,0-21.97,0-32.96,1.54-1.26,3.16-2.39,4.91-3.32.69.6.4,1.41.4,2.13.02,10.43,0,20.85.03,31.28,0,.77-.34,1.66.49,2.26-1.63,1.51-3.53,2.63-5.42,3.75Z"/>
  <path class="cls-6" d="m250.73,5.58c.73.49.48,1.25.48,1.91.01,11.79.02,23.57,0,35.36,0,.67.38,1.61-.8,1.8-.71-1.24-1.57-1.63-2.74-.52-.26.24-.63.36-.95.53-.7-.6-.4-1.41-.4-2.13-.02-10.44,0-20.87-.03-31.31,0-.77.34-1.66-.52-2.26,1.52-1.33,3.19-2.43,4.97-3.37Z"/>
  <path class="cls-10" d="m245.76,8.95c.85.59.51,1.49.52,2.26.02,10.44,0,20.87.03,31.31,0,.72-.3,1.53.4,2.13-1.41,1.16-2.87,2.26-4.53,3.04-1.08-.49-.79-1.47-.8-2.31,0-11.21,0-22.41,0-33.62,1.43-.98,2.76-2.12,4.39-2.8Z"/>
  <path class="cls-5" d="m254.91,277.13c1.26-.24.83-1.25.83-1.97.02-12.66.02-25.31.02-37.97,0-4.22,0-8.44,0-12.66,1.01.25,2.02.5,3.03.75,0,19.14,0,38.28-.01,57.42,0,.84.31,1.82-.74,2.34-1.32-2.53-2.23-5.22-3.13-7.91Z"/>
  <path class="cls-10" d="m243.27,348.26c0-13.88,0-27.75.01-41.63,0-1.2-.06-2.39-.42-3.54,1.12-1.27,2.38-2.39,3.79-3.34.5.8.4,1.69.4,2.57,0,13.58,0,27.16,0,40.74,0,.87-.13,1.77.38,2.57-.96.89-1.92,1.78-2.88,2.66-.43.4-.87.49-1.29-.02Z"/>
  <path class="cls-13" d="m232.2,312.46c.39.75.47,1.54.46,2.37-.01,9.68,0,19.35-.02,29.03,0,.6.21,1.27-.37,1.77-1.96-.13-3.8-.82-5.69-1.24.3-.83.4-1.68.4-2.58-.02-6.84-.02-13.69,0-20.53,0-1.32-.03-2.63-.42-3.9,1.72-1.83,3.61-3.45,5.64-4.92Z"/>
  <path class="cls-5" d="m241.74,173.71c.46,1.85.39,3.73.39,5.61,0,9.43,0,18.86,0,28.29,0,.72-.29,1.53.41,2.13-1.38,1.21-2.9,2.21-4.54,3.03-.7-.59-.41-1.4-.41-2.12-.02-8.29,0-16.57-.02-24.86,0-3,.14-6.01-.37-8.99,1.51-1.03,3.02-2.06,4.53-3.08Z"/>
  <path class="cls-14" d="m364.12,329.75c-.68-.53-.42-1.28-.42-1.93-.01-15.75-.02-31.51.01-47.26,0-.66-.45-1.57.62-1.94,1.07,3.19,2.71,6.16,3.62,9.42-1.15.18-.84,1.09-.84,1.78-.01,11.64,0,23.28-.02,34.91,0,.78.13,1.49.46,2.19-.94,1.18-2.06,2.16-3.43,2.83Z"/>
  <path class="cls-5" d="m247.43,345.63c-.5-.8-.38-1.7-.38-2.57,0-13.58,0-27.16,0-40.74,0-.88.09-1.77-.4-2.57.96-1.21,2.14-2.16,3.42-2.99.32,1.03.4,2.08.4,3.16-.02,13.37-.01,26.73,0,40.1,0,.88-.13,1.77.38,2.58-.9,1.28-2.25,2.04-3.41,3.03Z"/>
  <path class="cls-5" d="m326.55,317.97c.93.74.78,1.78.78,2.78,0,14.23,0,28.46,0,42.68-.9,1.28-2.21,2.11-3.39,3.08,0-14.35,0-28.7-.03-43.05,0-.89.34-1.95-.82-2.49.97-1.21,2.24-2.07,3.45-3Z"/>
  <path class="cls-12" d="m317.09,365.45c-1.41-.22-2.82-.4-4.15-.95-.01-11.52-.02-23.04-.04-34.57,1.14-1.26,2.36-2.42,3.79-3.34.4.68.42,1.43.42,2.19-.01,12.22-.02,24.44-.02,36.66Z"/>
  <path class="cls-10" d="m323.1,320.97c1.16.53.82,1.59.82,2.49.02,14.35.02,28.7.03,43.05-1.18.81-2.31.16-3.44-.14,0-13.67.01-27.34,0-41.01,0-.61.19-1.28-.43-1.74.84-1.08,1.94-1.85,3.02-2.64Z"/>
  <path class="cls-8" d="m291.85,306.71c-.58-.37-.49-.97-.49-1.52,0-8.73,0-17.46,0-26.19,0-.58-.25-1.32.68-1.51,2.76,6.87,5.52,13.74,8.29,20.6.27.66.23,1.16-.35,1.65-2.72,2.31-5.42,4.65-8.13,6.97Z"/>
  <path class="cls-7" d="m226.57,317.38c.39,1.27.43,2.58.42,3.9-.02,6.84-.02,13.69,0,20.53,0,.89-.11,1.74-.4,2.58-1.89-.5-3.85-.72-5.68-1.46,0-6.06.02-12.11-.01-18.17,0-.67.41-1.6-.74-1.85,2.06-1.93,4.13-3.84,6.41-5.53Z"/>
  <path class="cls-1" d="m367.54,326.92c-.33-.69-.46-1.41-.46-2.19.01-11.64,0-23.28.02-34.91,0-.69-.31-1.6.84-1.78,1.26,3.16,2.77,6.21,3.7,9.5-.66.62-.37,1.42-.37,2.14-.03,7.97-.03,15.94-.03,23.9-1,1.37-2.52,2.17-3.7,3.34Z"/>
  <path class="cls-5" d="m255.77,338.08c-.51-.8-.39-1.7-.39-2.57,0-13.61,0-27.22-.01-40.83,0-.72.29-1.54-.45-2.11,1.09-1.09,2.01-2.37,3.45-3.06.01,14.23.03,28.46.03,42.7,0,1.14.08,2.25.45,3.34-.74,1.19-2.04,1.7-3.07,2.54Z"/>
  <path class="cls-2" d="m320.08,323.62c.62.46.43,1.14.43,1.74,0,13.67,0,27.34,0,41.01-1.16-.24-2.33-.4-3.41-.92,0-12.22,0-24.44.02-36.66,0-.77-.02-1.51-.42-2.19.97-1.17,2.17-2.09,3.38-2.98Z"/>
  <path class="cls-5" d="m241.38,11.76c0,11.21,0,22.41,0,33.62,0,.84-.28,1.82.79,2.31-1.15,1.08-2.48,1.88-3.85,2.62-.83-.71-.74-1.68-.74-2.62,0-11.11,0-22.21,0-33.32,1.26-.87,2.53-1.74,3.79-2.61Z"/>
  <path class="cls-10" d="m326.94,241.21c-.28.91-.38,1.83-.38,2.78.02,9.57.01,19.14.01,28.72,0,.88.09,1.77-.41,2.57-1.83-3.85-3.3-7.84-4.8-11.83,1.1-.33.64-1.25.64-1.91.03-7.17.02-14.33.02-21.5,1.64.39,3.28.78,4.91,1.16Z"/>
  <path class="cls-12" d="m201.97,243.37c.76-.81,1.68-1.38,2.66-1.87.51.8.39,1.7.39,2.57,0,16.2,0,32.39.01,48.59-.69.99-1.6,1.71-2.65,2.28,0-16.33,0-32.67-.01-49,0-.88.11-1.77-.4-2.57Z"/>
  <path class="cls-11" d="m173.16,121.09c.69.74.81,1.66.81,2.61,0,10.82,0,21.63,0,32.45,0,.72.23,1.59-.91,1.74-1.77-4.27-3.53-8.55-5.33-12.81-.22-.52-.09-.9.03-1.41,1.7-6.94,3.33-13.89,5.02-20.83.14-.58-.19-1.27.38-1.75Z"/>
  <path class="cls-8" d="m10.42,152.01c-3.22.79-5.49-.33-7.07-3.25-.8-1.48-1.89-2.83-2.97-4.13-.47-.56-.49-1.37-.06-1.96,1.44-1.97,2.86-3.97,4.11-6.06.86-1.43,1.91-2.05,3.55-1.81.8.12,1.63.06,2.45.08,0,5.71,0,11.42,0,17.14Z"/>
  <path class="cls-5" d="m250.46,223.35c0,12.84,0,25.69-.02,38.53,0,.71.47,1.73-.79,1.99-1.23-2.52-2.36-5.08-3.04-7.82.49-.8.45-1.68.45-2.56,0-10.32,0-20.64,0-30.96,1.2-.04,2.26.54,3.39.81Z"/>
  <path class="cls-4" d="m53.15,103.36c-2.26-.03-4.24,1.16-6.43,1.43,0-7.82.01-15.64.02-23.45,2.55,1.57,4.96,3.3,6.85,5.67-.66.53-.41,1.27-.42,1.92-.02,4.81-.02,9.62-.02,14.43Z"/>
  <path class="cls-10" d="m46.73,81.33c0,7.82-.01,15.64-.02,23.45-2.94,1.14-3.36,1.04-5.68-1.44.13-.74.37-1.48.37-2.22.02-6.62,0-13.24-.01-19.86,3.16-1.6,3.93-1.59,5.34.07Z"/>
  <path class="cls-13" d="m205.03,292.66c0-16.2,0-32.39-.01-48.59,0-.88.12-1.77-.39-2.57.74-.74.94-.02,1.13.46.78,1.99,1.52,4,2.28,6.01-.42.68-.37,1.44-.37,2.19,0,12.63,0,25.26.01,37.89,0,.66-.25,1.4.4,1.94-.79,1.15-1.98,1.84-3.05,2.67Z"/>
  <path class="cls-10" d="m191.37,250.58c.67.62.38,1.42.38,2.14.02,16.07.02,32.15,0,48.22,0,1.02.07,2,.38,2.97-.58.54-1.19,1.05-1.72,1.64-.89.98-1.3.54-1.58-.46.82-.15.66-.8.66-1.34,0-16.62,0-33.23,0-49.85,0-.62.12-1.32-.79-1.44.72-.87,1.74-1.32,2.68-1.89Z"/>
  <path class="cls-9" d="m312.9,329.94c.01,11.52.02,23.05.04,34.57-1.27-.31-2.55-.62-3.82-.92.01-9.31.02-18.62.05-27.93,0-.72-.18-1.36-.47-2,1.17-1.5,2.7-2.6,4.2-3.72Z"/>
  <path class="cls-2" d="m201.97,243.37c.51.8.4,1.7.4,2.57,0,16.33,0,32.67.01,49-.39.61-.89,1.11-1.53,1.46-1.06-.52-.74-1.5-.74-2.34-.01-16.5,0-33,0-49.5.63-.38,1.06-1.09,1.87-1.2Z"/>
  <path class="cls-10" d="m247.07,222.53c0,10.32-.01,20.64,0,30.96,0,.88.03,1.77-.45,2.56-1.67-3.33-2.97-6.82-4.18-10.34,1.14-.19.82-1.1.83-1.79.01-7.47,0-14.94,0-22.41,1.29.26,2.6.45,3.81,1.02Z"/>
  <path class="cls-8" d="m371.24,323.58c0-7.97,0-15.94.03-23.9,0-.72-.29-1.52.37-2.14,2.43,6.07,4.84,12.15,7.31,18.2.3.73,0,1.04-.44,1.42-2.42,2.14-4.85,4.28-7.27,6.43Z"/>
  <path class="cls-13" d="m308.7,333.66c.28.63.47,1.28.47,2-.03,9.31-.04,18.62-.05,27.93-1.38-.32-2.75-.65-4.13-.97.29-.9.4-1.82.39-2.78-.02-6.61-.03-13.23,0-19.84,0-1.08-.1-2.13-.42-3.15,1.12-1.21,2.32-2.32,3.73-3.18Z"/>
  <path class="cls-12" d="m184.92,255.12c.59-.76,1.4-1.22,2.27-1.59.44.74.41,1.56.41,2.38,0,14.5,0,29,0,43.49,0,.82.04,1.64-.42,2.38-1.05-1.25-1.69-2.72-2.28-4.22.66-.54.41-1.28.41-1.94.01-12.85.01-25.71,0-38.56,0-.66.25-1.41-.39-1.95Z"/>
  <path class="cls-3" d="m208.08,289.99c-.65-.54-.4-1.28-.4-1.94-.01-12.63,0-25.26-.01-37.89,0-.75-.05-1.51.37-2.19.98,2.4,1.96,4.79,2.95,7.19-1.1.33-.64,1.25-.64,1.91-.03,9.57-.03,19.13,0,28.7,0,.66-.25,1.4.39,1.95-.66,1.01-1.72,1.56-2.64,2.28Z"/>
  <path class="cls-13" d="m182.66,293.41c-1.23-1.78-2.28-3.66-3.08-5.68.62-.46.43-1.14.43-1.74,0-9.18,0-18.35-.01-27.53.77-.78,1.64-1.43,2.66-1.84.5.8.39,1.69.39,2.57,0,10.36,0,20.72.01,31.08,0,1.08-.09,2.12-.4,3.15Z"/>
  <path class="cls-6" d="m200.09,244.57c0,16.5,0,33,0,49.5,0,.84-.31,1.82.74,2.34-.75.64-1.49,1.28-2.24,1.92-.68-.61-.39-1.42-.39-2.14-.02-15.7-.02-31.39,0-47.09,0-1.02-.07-2-.37-2.97.75-.52,1.5-1.03,2.25-1.55Z"/>
  <path class="cls-5" d="m197.84,246.12c.3.97.37,1.96.37,2.97-.01,15.7-.01,31.39,0,47.09,0,.72-.29,1.53.39,2.14-.56.88-1.38,1.45-2.29,1.91,0-17.68,0-35.37-.01-53.05.51-.35,1.03-.71,1.54-1.06Z"/>
  <path class="cls-7" d="m15.28,134.81c1.82-.48,3.01.15,4.07,1.76,1.16,1.76,2.17,3.68,3.88,5.03,0,1.21,0,2.42-.01,3.63-1.8,1.11-2.56,3.06-3.6,4.72-1.09,1.74-2.34,2.54-4.34,2.03,0-5.72,0-11.45,0-17.17Z"/>
  <path class="cls-11" d="m295.47,92.33c-.93-.17-.7-.92-.7-1.5-.01-8.83,0-17.65,0-26.48,0-.68-.15-1.46.87-1.58,1.48,2.52,2.95,5.05,4.44,7.56.33.56.54,1.08.38,1.77-1.55,6.53-3.08,13.06-4.62,19.6-.05.23-.24.43-.36.65Z"/>
  <path class="cls-6" d="m187.18,301.79c.45-.74.42-1.56.42-2.38,0-14.5,0-29,0-43.49,0-.82.03-1.64-.41-2.38.36-.56.94-.8,1.51-1.06.92.12.79.82.79,1.44,0,16.62,0,33.23,0,49.85,0,.54.16,1.19-.66,1.34-.55-1.1-1.1-2.2-1.65-3.31Z"/>
  <path class="cls-6" d="m41.39,81.26c0,6.62.03,13.24.01,19.86,0,.74-.24,1.48-.37,2.22-1.76-1.22-3.5-2.46-4.97-4.03.37-.69.45-1.42.44-2.19-.02-4.85-.02-9.69-.02-14.54,1.61-.55,3.21-1.1,4.91-1.32Z"/>
  <path class="cls-2" d="m243.25,221.51c0,7.47.01,14.94,0,22.41,0,.69.32,1.6-.83,1.79-1.45-3.55-2.9-7.1-4.35-10.66,1-.28.62-1.11.63-1.72.03-4.31.01-8.62,0-12.94,1.51.37,3.03.74,4.54,1.12Z"/>
  <path class="cls-15" d="m220.16,322.91c1.15.24.74,1.18.74,1.85.03,6.06.01,12.11.01,18.17-1.77-.4-3.54-.81-5.31-1.21,0-4.01,0-8.02.01-12.03,0-.82-.01-1.63-.43-2.37,1.66-1.47,3.31-2.94,4.97-4.41Z"/>
  <path class="cls-9" d="m182.66,293.41c.32-1.03.4-2.07.4-3.15-.02-10.36-.01-20.72-.01-31.08,0-.87.11-1.77-.39-2.57.62-.69,1.36-1.22,2.25-1.51.64.54.39,1.29.39,1.95.01,12.85.01,25.71,0,38.56,0,.66.25,1.41-.41,1.94-.96-1.27-1.74-2.64-2.24-4.16Z"/>
  <path class="cls-3" d="m304.96,336.84c.32,1.03.42,2.07.42,3.15-.03,6.61-.02,13.23,0,19.84,0,.96-.11,1.87-.39,2.78-1.28-.31-2.57-.61-3.85-.92.47-.8.45-1.67.45-2.56,0-5.15-.02-10.3,0-15.45,0-1.2-.07-2.37-.44-3.52,1.17-1.22,2.41-2.36,3.81-3.33Z"/>
  <path class="cls-8" d="m215.19,327.32c.42.74.43,1.54.43,2.37-.02,4.01-.01,8.02-.01,12.03-1.89-.45-3.76-1.16-5.67-1.28-2.78-.18-3.21-2.43-4.31-4.16-.34-.54.07-.8.4-1.08,3.05-2.63,6.11-5.25,9.16-7.87Z"/>
  <path class="cls-7" d="m180,258.47c0,9.18.02,18.35.01,27.53,0,.6.19,1.28-.43,1.74-1.38-1.89-2.32-4.03-3.34-6.12.42-.68.38-1.44.37-2.19-.12-6.21.51-12.43,0-18.64,1-.97,2.17-1.68,3.4-2.32Z"/>
  <path class="cls-15" d="m15.42,135.16v17.17c-2.02.18-4.03.2-6.05-.12l1.43-16.99,4.62-.06Z"/>
  <path class="cls-6" d="m322.02,240.04c0,7.17.02,14.33-.02,21.5,0,.66.46,1.58-.64,1.91-1.35-3.45-3.01-6.78-3.93-10.39.42-.8.44-1.66.44-2.54,0-3.8.03-7.6.04-11.4,1.41.11,2.76.52,4.11.93Z"/>
  <path class="cls-7" d="m301.16,340.17c.37,1.15.44,2.32.44,3.52-.03,5.15-.02,10.3,0,15.45,0,.88.02,1.76-.45,2.56-1.39-.23-2.79-.45-4.11-.98.6-5.62.67-11.23-.04-16.84,1.22-1.42,2.63-2.64,4.16-3.71Z"/>
  <path class="cls-1" d="m394.35,327.73c-2.84-.8-5.67-1.6-8.89-2.5,1.77-1.73,3.27-3.27,4.86-4.72.83-.77,1.13-1.41.64-2.59-1.02-2.48-1.79-5.06-2.75-7.86,2.4.78,4.21,2.2,6.21,3.22-.03,4.82-.05,9.64-.08,14.46Z"/>
  <path class="cls-14" d="m210.72,287.71c-.64-.54-.39-1.29-.39-1.95-.02-9.57-.02-19.13,0-28.7,0-.66-.46-1.58.64-1.91.89,2.27,1.78,4.54,2.67,6.81-.81.15-.68.78-.68,1.33,0,6.78,0,13.56,0,20.34,0,.61-.13,1.32.79,1.44-.81,1.11-2.04,1.75-3.04,2.65Z"/>
  <path class="cls-15" d="m297,343.87c.7,5.61.63,11.23.04,16.84-1.64-.39-3.28-.78-4.93-1.17,0-1.81.07-3.62-.01-5.43-.09-1.91.39-3.86-.32-5.74,1.63-1.63,3.32-3.19,5.22-4.51Z"/>
  <path class="cls-8" d="m291.77,348.38c.71,1.88.23,3.83.32,5.74.08,1.81.01,3.62.01,5.43-3.36-.73-6.71-1.47-10.36-2.26,3.35-3.18,6.56-6.18,10.03-8.9Z"/>
  <path class="cls-8" d="m92.99,171.08c-.08-.61-.16-1.22-.24-1.83,1.67-1.28.63-3.11.95-4.66.16-.75-.56-1.8.69-2.21,2.07,6.39,4.15,12.79,6.22,19.18-.14.1-.28.2-.42.31-2.29-1.84-4.58-3.68-6.87-5.52.22-1.78.89-3.58-.33-5.27Z"/>
  <path class="cls-5" d="m53.15,103.36c0-4.81,0-9.62.02-14.43,0-.66-.24-1.4.42-1.92,3.18,1.27,3.82,2.27,3.27,6.06-.34,2.31-.18,4.61-.36,6.91-.08,1.01.21,1.83.89,2.55-1.36,1.2-.61,2.81-.83,4.24-1.26-1.02-2.4-2.14-3.41-3.4Z"/>
  <path class="cls-12" d="m36.49,82.58c0,4.85,0,9.69.02,14.54,0,.77-.08,1.5-.44,2.19-.37-.24-.73-.5-1.11-.71-1.99-1.1-2.79-2.63-2.69-5.03.12-2.82.49-5.62.45-8.45-.02-1.05.42-1.66,1.42-1.92.79-.2,1.57-.42,2.36-.63Z"/>
  <path class="cls-1" d="m94.39,162.38c-1.25.41-.54,1.46-.69,2.21-.32,1.55.72,3.38-.95,4.66-1.55-4.53-3.08-9.07-4.33-13.7,1.35-1.65.45-3.6.72-5.4.1-.67-.36-1.59.79-1.8,1.51,4.67,3.32,9.24,4.46,14.03Z"/>
  <path class="cls-15" d="m213.76,285.06c-.92-.12-.79-.82-.79-1.44,0-6.78,0-13.56,0-20.34,0-.55-.13-1.18.68-1.33.78,2.02,1.56,4.04,2.34,6.06-.53.43-.36,1.04-.37,1.59-.01,3.91,0,7.81-.01,11.72,0,.64.05,1.26.38,1.82l-2.23,1.92Z"/>
  <path class="cls-14" d="m89.92,148.36c-1.15.21-.69,1.13-.79,1.8-.27,1.8.63,3.75-.72,5.4-1.59-4.48-3.07-8.99-4.26-13.6,1.06-1.55.73-3.32.82-5.03.04-.66-.4-1.59.75-1.81,1.22,4.47,3.14,8.72,4.19,13.24Z"/>
  <path class="cls-12" d="m317.92,239.12c-.02,3.8-.04,7.6-.04,11.4,0,.88-.02,1.74-.44,2.54-1.94-3.39-2.96-7.17-4.51-10.73-.67-1.54-1.24-3.12-1.99-5.04,2.55.67,4.77,1.25,6.98,1.83Z"/>
  <path class="cls-12" d="m238.71,220.4c0,4.31.02,8.62,0,12.94,0,.61.37,1.44-.63,1.72-1.47-3.7-2.96-7.39-4.39-11.1-.27-.69-1.19-1.49-.35-2.18,1.07-.88,2.08-2.09,3.74-1.79.55.1,1.09.28,1.63.42Z"/>
  <path class="cls-15" d="m176.61,260.79c.52,6.21-.12,12.43,0,18.64.01.75.05,1.51-.37,2.19-1.08-1.53-1.87-3.23-2.65-4.93.11-.29.32-.58.32-.87.03-3.94.02-7.87.03-11.81,0-.48-.19-.84-.6-1.09,1.09-.71,2.17-1.42,3.26-2.13Z"/>
  <path class="cls-4" d="m44.83,144.61c3.94.45,7.89.88,11.76,1.8,0,1.22.02,2.44.02,3.67-4.06-.59-8.11-1.19-12.17-1.78.13-1.23.26-2.46.39-3.68Z"/>
  <path class="cls-7" d="m85.74,135.12c-1.15.22-.72,1.15-.75,1.81-.09,1.71.24,3.48-.82,5.03-1.33-2.9-1.98-6.03-3.04-9.02-.35-1-.76-1.98-1.14-2.96.61-1.46.36-3.03.52-4.54,3.44,2.31,4.42,5.96,5.23,9.69Z"/>
  <path class="cls-7" d="m397.84,315.19c1.27.39,2.38,1.07,3.41,1.89-.38,1.08-.48,2.18-.47,3.32.03,3.07,0,6.15,0,9.22-1.16-.24-2.34-.45-3.39-1.06,0-3.68,0-7.35-.01-11.03,0-.82.01-1.62.46-2.34Z"/>
  <path class="cls-8" d="m173.35,262.92c.41.24.6.61.6,1.09,0,3.94,0,7.87-.03,11.81,0,.29-.21.58-.32.87-1.71-3.09-3.41-6.18-5.15-9.26-.4-.71-.27-1.07.41-1.49,1.53-.96,3-2.01,4.5-3.02Z"/>
  <path class="cls-14" d="m397.84,315.19c-.45.72-.46,1.52-.46,2.34.02,3.68.01,7.35.01,11.03-1.06-.13-2.07-.41-3.04-.84.03-4.82.05-9.64.08-14.46,1.33.3,2.15,1.51,3.41,1.92Z"/>
  <path class="cls-13" d="m400.79,329.62c0-3.07.03-6.15,0-9.22-.01-1.14.08-2.25.47-3.32,1.1.32,2.08.88,3.02,1.51-.03,4-.06,8.01-.08,12.01-1.2-.11-2.32-.46-3.4-.98Z"/>
  <path class="cls-4" d="m417.5,325.84c1.98.49,3.55,1.77,5.26,2.77-.59,2.46-.33,4.96-.36,7.44-1.69-.35-3.36-.76-4.95-1.48.01-2.91.03-5.82.04-8.73Z"/>
  <path class="cls-12" d="m411.01,332.65c-1.31-.23-2.58-.55-3.78-1.13.32-.89.4-1.81.39-2.76-.02-2.75.02-5.51.04-8.26,1.4.4,2.61,1.13,3.72,2.05-.18,3.36.44,6.76-.38,10.1Z"/>
  <path class="cls-8" d="m215.99,283.14c-.33-.56-.38-1.18-.38-1.82.01-3.91,0-7.81.01-11.72,0-.55-.16-1.15.37-1.59,1.37,3.31,2.72,6.63,4.14,9.92.4.94.3,1.57-.53,2.2-1.24.95-2.41,1.99-3.61,3Z"/>
  <path class="cls-9" d="m407.67,320.5c-.02,2.75-.06,5.51-.04,8.26,0,.95-.07,1.87-.39,2.76-1.05-.2-2.11-.36-3.04-.92.03-4,.06-8.01.08-12.01,1.27.4,2.31,1.19,3.39,1.92Z"/>
  <path class="cls-12" d="m427.32,331.1c1.98,1.22,4.33,1.78,6.09,3.39-.76,1.5-.3,3.11-.42,4.67-2.08-.44-4.12-1.01-6.07-1.87.08-2.07-.25-4.16.39-6.19Z"/>
  <path class="cls-12" d="m62.65,107.77c2.19,2.1,4.63,3.95,6.47,6.4-.47.77-.44,1.62-.44,2.48,0,.57.21,1.29-.71,1.42-2.27-1.95-4.39-4.04-6.32-6.33.73-.35.59-1.02.59-1.62,0-.81-.01-1.61.41-2.34Z"/>
  <path class="cls-9" d="m67.97,118.07c.92-.13.7-.86.71-1.42,0-.86-.03-1.71.44-2.48,2.13,1.88,4.21,3.8,6.04,5.99-.51,1.52-.44,3.09-.39,4.66-2.43-2.08-4.68-4.35-6.8-6.75Z"/>
  <path class="cls-9" d="m23.22,145.23c0-1.21,0-2.42.01-3.63,2.91.33,5.84.54,8.71,1.16,0,1.22,0,2.44,0,3.66-2.92-.29-5.86-.54-8.73-1.19Z"/>
  <path class="cls-10" d="m427.32,331.1c-.64,2.03-.31,4.13-.39,6.19-1.6-.1-3.07-.66-4.53-1.25.03-2.49-.23-4.99.36-7.44,1.64.62,3.11,1.53,4.56,2.49Z"/>
  <path class="cls-14" d="m82.04,163.08c2.23,1.81,4.75,3.26,6.78,5.32-1.28,1.06-.68,2.51-.82,3.81-2.41-1.59-4.64-3.41-6.82-5.29,0-.69-.02-1.38,0-2.07.03-.7-.27-1.59.85-1.77Z"/>
  <path class="cls-3" d="m82.04,163.08c-1.12.19-.82,1.07-.85,1.77-.03.69,0,1.38,0,2.07-2.41-1.59-4.66-3.39-6.81-5.31.67-1.2-.08-2.71.84-3.85,2.23,1.84,4.79,3.25,6.83,5.32Z"/>
  <path class="cls-13" d="m433,339.16c.12-1.56-.34-3.17.42-4.67,2.39.94,4.63,2.15,6.76,3.58,0,1.09.02,2.17.03,3.26-2.4-.72-4.81-1.44-7.21-2.17Z"/>
  <path class="cls-6" d="m411.01,332.65c.82-3.34.19-6.73.38-10.1,1.15.37,2.32.73,3.1,1.76-.02,3.1-.05,6.19-.07,9.28-1.2-.08-2.34-.38-3.41-.95Z"/>
  <path class="cls-3" d="m74.77,124.82c-.05-1.57-.12-3.14.39-4.66,1.78,1.76,3.57,3.51,5.35,5.27-.17,1.51.09,3.08-.52,4.54-1.87-1.59-3.67-3.24-5.22-5.15Z"/>
  <path class="cls-6" d="m56.61,150.07c0-1.22-.02-2.44-.02-3.67,2.51.58,5.49-.21,7.24,2.52-.72,1.3-.31,2.73-.49,4.09-2.07-1.39-4.02-3.03-6.73-2.95Z"/>
  <path class="cls-10" d="m62.65,107.77c-.42.73-.41,1.53-.41,2.34,0,.6.15,1.27-.59,1.62-1.93-1.43-3.51-3.21-5.1-4.98.22-1.42-.54-3.04.83-4.24,1.85,1.65,3.63,3.38,5.27,5.25Z"/>
  <path class="cls-5" d="m414.42,333.6c.02-3.09.05-6.19.07-9.28,1.13.25,2.15.74,3.01,1.53-.01,2.91-.03,5.82-.04,8.73-1.04-.24-2.14-.29-3.03-.98Z"/>
  <path class="cls-12" d="m63.34,153.02c.18-1.36-.24-2.79.49-4.09,1.83,1.51,4,2.58,5.63,4.34-.73,1.35-.25,2.82-.41,4.23-2.04-1.32-3.93-2.83-5.71-4.48Z"/>
  <path class="cls-9" d="m69.05,157.5c.16-1.41-.32-2.88.41-4.23,1.83,1.61,4.09,2.68,5.76,4.5-.92,1.14-.18,2.65-.84,3.85-1.93-1.17-3.64-2.62-5.32-4.11Z"/>
  <path class="cls-1" d="m88,172.21c.14-1.3-.46-2.76.82-3.81.84.69,1.69,1.37,2.53,2.06.48.39.91.88,1.63.63,1.22,1.69.55,3.49.33,5.27-1.87-1.25-3.7-2.56-5.31-4.14Z"/>
  <path class="cls-14" d="m440.21,341.33c0-1.09-.02-2.17-.03-3.26,3.9,2.05,7.8,4.09,11.7,6.14-.07.2-.14.4-.21.6-3.82-1.16-7.65-2.32-11.47-3.48Z"/>
  <path class="cls-12" d="m31.95,146.42c0-1.22,0-2.44,0-3.66,2.19.11,4.31.62,6.45,1.06-.01,1.21-.03,2.43-.04,3.64-2.14-.31-4.32-.38-6.4-1.04Z"/>
  <path class="cls-10" d="m38.35,147.46c.01-1.21.03-2.43.04-3.64,2.19-.15,4.29.51,6.43.79-.13,1.23-.26,2.46-.39,3.69-2.03-.28-4.06-.56-6.09-.83Z"/>
  <path class="cls-13" d="m204.27,235.07c.17.01.33.03.5.04-.19.23-.37.4-.5-.04Z"/>
</svg>