<?xml version="1.0" encoding="UTF-8" standalone="no"?>
<!-- Created with Inkscape (http://www.inkscape.org/) -->

<svg
   width="155.01576mm"
   height="58.481998mm"
   viewBox="0 0 155.01576 58.481998"
   version="1.1"
   id="svg5"
   xml:space="preserve"
   inkscape:version="1.2.2 (b0a8486541, 2022-12-01)"
   sodipodi:docname="jaladarklogo.svg"
   xmlns:inkscape="http://www.inkscape.org/namespaces/inkscape"
   xmlns:sodipodi="http://sodipodi.sourceforge.net/DTD/sodipodi-0.dtd"
   xmlns="http://www.w3.org/2000/svg"
   xmlns:svg="http://www.w3.org/2000/svg"><sodipodi:namedview
     id="namedview7"
     pagecolor="#505050"
     bordercolor="#eeeeee"
     borderopacity="1"
     inkscape:showpageshadow="0"
     inkscape:pageopacity="0"
     inkscape:pagecheckerboard="0"
     inkscape:deskcolor="#505050"
     inkscape:document-units="mm"
     showgrid="false"
     inkscape:zoom="0.69931958"
     inkscape:cx="45.043784"
     inkscape:cy="514.07112"
     inkscape:window-width="1920"
     inkscape:window-height="1043"
     inkscape:window-x="0"
     inkscape:window-y="0"
     inkscape:window-maximized="1"
     inkscape:current-layer="layer1" /><defs
     id="defs2" /><g
     inkscape:label="Layer 1"
     inkscape:groupmode="layer"
     id="layer1"
     transform="translate(-30.199208,-12.851145)"><path
       style="fill:#000000;stroke-width:0.264583"
       d="m 86.260809,68.819594 v -2.51354 h -0.79375 c -0.61736,0 -0.79375,-0.1176 -0.79375,-0.52917 0,-0.48766 0.17639,-0.52917 2.248959,-0.52917 2.046816,0 2.248958,0.046 2.248958,0.5116 0,0.36141 -0.213585,0.53616 -0.727604,0.59531 l -0.727604,0.0837 -0.07608,2.44739 c -0.07471,2.40363 -0.08773,2.4474 -0.727604,2.4474 -0.646594,0 -0.651529,-0.019 -0.651529,-2.51354 z m 5.291667,-0.52917 v -3.04271 h 1.852083 c 1.657422,0 1.852084,0.054 1.852084,0.51396 0,0.4155 -0.215406,0.52954 -1.12448,0.59531 -0.934778,0.0676 -1.138742,0.18179 -1.209026,0.67667 -0.07413,0.52197 0.03181,0.59531 0.859896,0.59531 0.831016,0 0.944443,0.0794 0.944443,0.66146 0,0.57957 -0.114652,0.66146 -0.926042,0.66146 -0.749652,0 -0.926041,0.10079 -0.926041,0.52917 0,0.45077 0.176389,0.52916 1.190625,0.52916 1.09361,0 1.190625,0.0539 1.190625,0.66146 0,0.64256 -0.05292,0.66146 -1.852084,0.66146 h -1.852083 z m 7.698422,2.72234 c -2.153914,-1.15525 -2.240769,-4.50326 -0.141636,-5.45968 1.235098,-0.56276 2.625498,-0.38057 3.527728,0.46224 0.45196,0.42219 0.82173,0.89844 0.82173,1.05834 0,0.47323 -1.05477,0.33193 -1.77988,-0.23845 -0.89965,-0.70766 -1.54626,-0.66666 -2.362748,0.14983 -0.549159,0.54917 -0.647364,0.84007 -0.513575,1.52136 0.09098,0.46329 0.365167,0.99118 0.609301,1.17308 0.625882,0.46635 2.176042,0.42296 2.363722,-0.0661 0.15688,-0.40882 1.68318,-0.57367 1.68318,-0.18179 0,0.11829 -0.3439,0.54456 -0.76422,0.94725 -0.89009,0.85276 -2.48741,1.14682 -3.443602,0.63396 z m 6.853662,-2.72234 c 0,-2.8363 0.0349,-3.04271 0.51395,-3.04271 0.4155,0 0.52954,0.21541 0.59531,1.12448 l 0.0814,1.12448 1.25677,0.0806 1.25677,0.0807 v -1.22353 c 0,-1.1175 0.0516,-1.21619 0.59532,-1.13897 0.57615,0.0818 0.59531,0.17819 0.59531,2.99496 0,2.79418 -0.0232,2.91371 -0.58015,2.99298 -0.51924,0.0739 -0.58868,-0.0511 -0.66146,-1.19063 l -0.0813,-1.27318 h -1.19062 -1.19063 l -0.0806,1.25677 c -0.0668,1.04094 -0.16903,1.25677 -0.59531,1.25677 -0.48,0 -0.51467,-0.20496 -0.51467,-3.04271 z m 7.86276,2.70041 c -0.0742,-0.19342 -0.11753,-1.53498 -0.0962,-2.98125 0.0362,-2.4601 0.0747,-2.63472 0.59751,-2.70934 0.42408,-0.0605 0.90251,0.37144 1.98437,1.79171 l 1.42557,1.87148 0.0777,-1.85786 c 0.0746,-1.7823 0.10452,-1.85786 0.73627,-1.85786 h 0.65853 l -0.0748,2.9734 c -0.0954,3.79137 -0.34074,3.91005 -2.49902,1.20873 l -1.54454,-1.93317 -0.13229,1.85208 c -0.10312,1.44369 -0.22775,1.86771 -0.56521,1.92292 -0.2381,0.039 -0.49364,-0.0874 -0.56786,-0.28084 z m 9.38538,-0.17876 c -1.57833,-0.98911 -1.99562,-3.0616 -0.88613,-4.40103 1.4846,-1.79228 4.37949,-1.45176 5.24379,0.61681 1.13839,2.72455 -1.8741,5.34061 -4.35766,3.78422 z m 2.86019,-1.33102 c 0.7151,-0.7151 0.66634,-1.73896 -0.12027,-2.52557 -0.77704,-0.77704 -1.45872,-0.8231 -2.28459,-0.15436 -0.79428,0.64318 -0.84843,2.23265 -0.0954,2.80209 0.73205,0.55361 1.88066,0.49749 2.50031,-0.12216 z m 4.42056,1.68653 c -0.10297,-0.10298 -0.18723,-1.47707 -0.18723,-3.05355 v -2.86632 h 0.66146 c 0.65656,0 0.66146,0.0177 0.66146,2.38125 v 2.38125 h 1.34132 c 1.23966,0 1.33491,0.0451 1.25677,0.59532 -0.0765,0.53862 -0.24937,0.60264 -1.81555,0.67229 -0.95205,0.0423 -1.81526,-0.007 -1.91823,-0.11024 z m 7.15829,-0.24863 c -0.91398,-0.49592 -1.52468,-1.66007 -1.52468,-2.90643 0,-0.7454 0.20517,-1.17081 0.89958,-1.86522 2.61424,-2.61424 6.67324,0.72486 4.59052,3.77635 -0.91908,1.34658 -2.55928,1.75827 -3.96542,0.9953 z m 2.70865,-1.4379 c 0.76134,-0.76135 0.68496,-1.95571 -0.16797,-2.62663 -0.87661,-0.68955 -1.53721,-0.69528 -2.21328,-0.0192 -0.647,0.647 -0.69375,2.02543 -0.0913,2.69115 0.57774,0.6384 1.81143,0.61579 2.47253,-0.0453 z m 5.92352,1.59277 c -1.04435,-0.42197 -1.69019,-1.55969 -1.69019,-2.97751 0,-1.12808 0.11593,-1.42167 0.82174,-2.08099 0.67864,-0.63395 1.05075,-0.76761 2.13701,-0.76761 1.13532,0 1.43017,0.11767 2.15483,0.8599 l 0.83955,0.85989 -0.71234,0.0823 c -0.39179,0.0452 -1.016,-0.11672 -1.38714,-0.35989 -1.83232,-1.20059 -3.68075,1.33879 -2.11456,2.90498 0.49052,0.49052 1.98862,0.55058 2.44133,0.0979 0.56474,-0.56473 0.35599,-1.00541 -0.47625,-1.00541 -0.61736,0 -0.79375,-0.1176 -0.79375,-0.52917 0,-0.46503 0.17639,-0.52917 1.45521,-0.52917 1.51493,0 1.56606,0.0464 1.45756,1.32292 -0.083,0.9767 -0.45418,1.53392 -1.31997,1.98164 -0.84563,0.43729 -1.94259,0.492 -2.81303,0.1403 z m 8.09688,-1.01391 c -0.002,-0.98958 -0.21595,-1.57677 -1.05833,-2.9046 -0.5807,-0.91536 -1.05582,-1.71903 -1.05582,-1.78594 0,-0.0669 0.29616,-0.12166 0.65814,-0.12166 0.48495,0 0.8421,0.29142 1.35723,1.10744 l 0.69909,1.10743 0.65401,-1.10743 c 0.52962,-0.89679 0.80051,-1.10744 1.42422,-1.10744 h 0.7702 l -0.70418,1.12448 c -0.38729,0.61847 -0.93007,1.41542 -1.20616,1.77101 -0.2761,0.3556 -0.48331,0.89138 -0.46049,1.19063 0.1084,1.42081 -0.0238,1.8872 -0.54623,1.92655 -0.45926,0.0346 -0.5295,-0.12399 -0.53168,-1.20047 z m 21.43377,-9.00853 c 0,-0.12517 0.48,-1.26655 1.06667,-2.5364 l 1.06668,-2.308823 -0.83397,-1.763075 c -1.24968,-2.641928 -3.68063,-8.16689 -3.68063,-8.365185 0,-0.09557 0.56554,-0.137472 1.25677,-0.09312 l 1.25677,0.08064 1.5875,3.631541 c 0.87312,1.997347 1.66806,3.634457 1.76654,3.638021 0.0985,0.0036 0.21753,-0.163283 0.26458,-0.370769 0.047,-0.207486 0.74039,-1.873504 1.54075,-3.702261 l 1.45521,-3.325014 1.25677,-0.0019 c 0.69123,-0.0011 1.25677,0.106545 1.25677,0.239096 0,0.132548 -0.42997,1.174345 -0.95549,2.315104 -0.52553,1.140757 -1.3953,3.026603 -1.93282,4.19077 -0.53753,1.164167 -1.61919,3.575182 -2.4037,5.357815 l -1.42638,3.24115 h -1.27101 c -0.69906,-6e-5 -1.27101,-0.10247 -1.27101,-0.22764 z M 47.102477,56.813126 C 38.947984,55.022281 33.15538,49.471169 30.917532,41.302926 30.39581,39.398614 30.327505,38.403199 30.236697,31.381051 c -0.08522,-6.589969 -0.03994,-7.887596 0.290807,-8.334374 0.357652,-0.483119 0.69871,-0.529167 3.919295,-0.529167 h 3.527553 l 0.156429,7.9375 c 0.137178,6.960705 0.221455,8.132857 0.68484,9.524999 1.504464,4.51984 4.060422,7.261395 8.186513,8.780971 2.427698,0.894082 6.803522,1.12903 9.443775,0.507055 5.200843,-1.225182 8.576789,-4.545774 10.008068,-9.843971 0.494694,-1.831221 0.580133,-3.015009 0.690309,-9.564367 l 0.125732,-7.474479 3.343833,0.004 c 1.839109,0.0021 3.474837,0.09153 3.634955,0.198438 0.784796,0.524023 0.899398,1.470684 0.894262,7.386889 -0.007,8.035906 -0.485523,11.225796 -2.26868,15.122529 -2.5688,5.613596 -7.605673,9.882788 -13.508426,11.449582 -3.037642,0.806291 -9.196015,0.94008 -12.263485,0.266419 z m 41.175719,-0.156194 c -1.377725,-0.491088 -2.703351,-1.827726 -3.270884,-3.29805 -0.389525,-1.009152 -0.466294,-2.079238 -0.466294,-6.499706 v -5.291667 l 1.256771,-0.08064 1.25677,-0.08064 v 5.20003 c 0,6.070304 0.175152,6.744116 1.964304,7.556714 1.343141,0.610032 2.065126,0.623002 3.254796,0.05846 1.660464,-0.787942 1.912112,-1.796848 1.91884,-7.692987 l 0.0058,-5.093229 h 1.185585 c 1.536205,0 1.546482,0.04478 1.411682,6.152769 -0.120735,5.470821 -0.400368,6.518825 -2.149028,8.054151 -1.567278,1.376072 -4.184695,1.793156 -6.368352,1.014794 z m 44.188724,0.0011 c -2.17152,-0.774044 -3.34361,-2.593837 -3.34361,-5.191201 0,-2.998719 1.41675,-4.835441 4.27619,-5.543772 3.27417,-0.811075 6.56317,1.876051 6.57025,5.36793 l 0.001,0.727604 h -4.23333 c -4.04572,0 -4.23333,0.02326 -4.23333,0.524991 0,0.288748 0.33449,0.899356 0.74332,1.356911 0.598,0.669279 1.00342,0.856911 2.0738,0.95976 1.20168,0.115466 1.42129,0.04813 2.26818,-0.69545 0.72465,-0.636251 1.18521,-0.823296 2.02723,-0.823296 1.44281,0 1.43345,0.519473 -0.0358,1.98873 -1.64383,1.643822 -3.87119,2.127544 -6.11437,1.327873 z m 4.69545,-6.513758 c 0.2654,-0.28843 -0.43875,-1.354392 -1.2169,-1.842151 -1.48328,-0.929756 -3.5977,-0.320516 -4.1746,1.202849 -0.13271,0.35044 -0.0803,0.573849 0.1551,0.661458 0.42183,0.156977 5.08974,0.137226 5.2364,-0.02215 z m 14.91103,6.523151 c -1.22593,-0.437462 -1.70891,-0.826931 -2.19775,-1.772232 -0.63335,-1.224775 -0.50501,-1.472832 0.74505,-1.44004 0.90348,0.02371 1.29499,0.202933 1.99203,0.911937 0.7774,0.790734 0.96981,0.863259 1.85148,0.697857 1.08748,-0.204012 1.41908,-0.535718 1.31738,-1.3178 -0.0806,-0.619561 -0.84753,-1.038256 -2.93931,-1.6046 -1.82629,-0.494466 -2.71237,-1.282231 -2.96661,-2.637448 -0.40181,-2.141831 1.17986,-3.646885 3.85389,-3.667189 1.74927,-0.01328 2.99193,0.576017 3.71487,1.761678 0.76806,1.259642 0.67308,1.508509 -0.57568,1.508509 -0.82722,0 -1.24369,-0.161364 -1.70716,-0.661459 -1.00764,-1.087183 -2.75495,-0.837871 -2.75495,0.393163 0,0.807347 0.42935,1.060903 2.74923,1.623589 0.71171,0.172628 1.69398,0.665031 2.18281,1.094235 0.78442,0.688724 0.88879,0.934553 0.88879,2.09327 0,1.70413 -0.32971,2.27149 -1.67499,2.882296 -1.28579,0.583798 -3.06955,0.637286 -4.47908,0.134313 z m 17.78029,0.127161 c -2.21008,-0.669959 -2.63038,-1.576892 -2.63038,-5.675876 v -3.068867 h -1.05834 -1.05833 v -1.058375 -1.058334 h 1.05833 1.05834 v -1.455208 -1.455208 h 1.19062 1.19063 v 1.442005 1.442003 l 1.52135,0.07935 1.52136,0.07935 0.0813,0.978532 0.0813,0.97853 -1.53651,0.0798 -1.53651,0.0798 -0.0761,2.610933 c -0.0963,3.304188 0.18707,3.871359 1.93429,3.871359 h 1.18453 v 1.058333 c 0,0.992947 -0.0477,1.058334 -0.77211,1.058334 -0.42466,0 -0.93068,0.0492 -1.12448,0.109344 -0.19381,0.06014 -0.65698,0.01701 -1.02928,-0.09585 z M 99.754561,51.341921 v -5.439172 l 1.124479,0.08136 c 0.93914,0.06795 1.13857,0.18067 1.20997,0.683908 l 0.0855,0.602551 0.76522,-0.643887 c 1.18561,-0.99763 2.65862,-1.134764 4.15997,-0.387281 2.02683,1.009099 2.29579,1.737672 2.40204,6.506797 l 0.0899,4.034896 h -1.19437 -1.19437 l -0.0861,-3.683664 c -0.0813,-3.475255 -0.12243,-3.722249 -0.72757,-4.365625 -0.89408,-0.950569 -2.1304,-0.916461 -3.257,0.08985 l -0.86407,0.771811 -0.0921,3.593814 -0.0921,3.593817 h -1.16467 -1.164659 z m 12.699999,0.01521 v -5.423997 h 1.19062 1.19063 v 5.423958 5.423959 h -1.19063 -1.19062 z m 8.20906,3.914905 c -0.34637,-0.84351 -1.3826,-3.162573 -2.30274,-5.153469 -0.92015,-1.9909 -1.67299,-3.747072 -1.67299,-3.902604 0,-0.161351 0.5397,-0.281636 1.25677,-0.280104 l 1.25677,0.0027 1.56974,3.706011 c 0.86336,2.038308 1.66157,3.614185 1.7738,3.501951 0.11224,-0.112234 0.85797,-1.751383 1.6572,-3.642553 l 1.45313,-3.438491 1.33713,-0.07997 c 1.53049,-0.09154 1.58361,0.02088 0.76159,1.611868 -0.31654,0.612666 -1.37471,2.899875 -2.35149,5.082688 l -1.77595,3.968749 -1.1666,0.07845 -1.1666,0.07845 -0.62976,-1.533654 z m 21.68885,-3.914905 v -5.423997 h 1.19063 c 1.15881,0 1.19062,0.02225 1.19062,0.832385 v 0.832387 l 0.63891,-0.689393 c 0.3514,-0.379167 0.9346,-0.763609 1.29601,-0.854316 0.77297,-0.194003 1.79469,-0.07364 1.77973,0.209666 -0.006,0.109141 -0.0105,0.615157 -0.0105,1.12448 0,0.892206 -0.0362,0.926348 -0.99218,0.934455 -2.06033,0.01746 -2.71198,1.348502 -2.71198,5.539338 l -1e-5,2.918915 h -1.19062 -1.19063 z m 18.31692,0.06615 0.0716,-5.357812 h 1.19062 1.19063 l 0.0511,5.357812 0.0511,5.357813 h -1.31335 -1.31334 z M 49.154095,46.969253 c -2.625206,-0.618876 -5.465126,-2.658364 -6.927581,-4.975042 -1.377738,-2.182479 -1.809346,-4.080976 -1.841382,-8.099618 l -0.02953,-3.704167 2.316805,-0.07647 c 2.167743,-0.07155 2.359253,-0.03402 2.976562,0.583287 0.604046,0.604046 0.659758,0.857798 0.659758,3.00501 0,3.104423 0.524254,4.826185 1.865982,6.128287 1.553543,1.507662 4.228896,2.018313 6.702279,1.279285 1.405673,-0.420005 3.121755,-2.136087 3.54176,-3.54176 0.234574,-0.785072 0.325395,-4.130337 0.325395,-11.985535 0,-13.526316 -0.243819,-12.722309 3.858099,-12.722309 h 2.227318 v 11.982952 c 0,13.171347 -0.04811,13.663797 -1.623571,16.619672 -1.339675,2.513489 -3.846705,4.485129 -6.824972,5.367462 -1.561848,0.462708 -5.529939,0.539001 -7.226922,0.138948 z m 63.623915,-3.564662 c -1.16475,-0.815827 -0.47945,-3.027707 0.93807,-3.027707 0.48825,0 1.64889,1.210546 1.64889,1.719792 0,0.509246 -1.16064,1.719792 -1.64889,1.719792 -0.19252,0 -0.61465,-0.185346 -0.93807,-0.411877 z m 48.0953,-0.11729 c -0.86583,-0.865828 -0.64025,-2.251519 0.43296,-2.659552 1.92161,-0.730597 3.13776,2.032651 1.26929,2.883982 -0.90666,0.413107 -1.08872,0.389104 -1.70225,-0.22443 z M 97.817783,37.966446 c -3.777168,-1.010169 -5.0584,-5.939518 -2.437072,-9.376257 1.355315,-1.77691 5.148119,-2.298694 6.624839,-0.911394 l 0.65942,0.619498 v -0.587912 c 0,-0.553188 0.0977,-0.583261 1.65365,-0.509143 l 1.65365,0.07877 v 5.159375 5.159374 l -1.65365,0.07877 c -1.52313,0.07255 -1.65365,0.03539 -1.65365,-0.470942 0,-0.548897 -10e-4,-0.548847 -0.78994,0.03432 -0.87078,0.643792 -2.96356,1.018031 -4.057247,0.725535 z m 3.538927,-2.88907 c 1.11905,-0.598898 1.66345,-2.799652 1.00046,-4.044448 -0.46637,-0.875651 -1.05127,-1.221681 -2.08072,-1.230963 -1.206524,-0.01087 -1.992789,0.556374 -2.374548,1.713114 -0.802849,2.432661 1.373155,4.676364 3.454808,3.562297 z m -16.725445,1.232341 -0.09025,-1.754777 1.322916,-5.29e-4 c 1.750796,-5.29e-4 2.957746,-0.724636 3.17391,-1.904064 0.08795,-0.479885 0.124177,-2.182203 0.0805,-3.782933 l -0.07941,-2.910416 -1.25677,-0.08064 -1.256771,-0.08064 v -1.573003 -1.573004 h 3.037668 c 2.996983,0 3.039829,0.0086 3.199188,0.643554 0.08884,0.353955 0.120872,3.003095 0.07119,5.886979 -0.07934,4.605398 -0.154723,5.371179 -0.619501,6.293342 -0.745818,1.479772 -2.272461,2.188345 -5.20142,2.414175 l -2.291003,0.176644 -0.09025,-1.754778 z m 30.811045,0.981147 c -1.63736,-1.061686 -2.32403,-2.461416 -2.32527,-4.739936 -7.9e-4,-1.620729 0.10582,-2.045351 0.79273,-3.154458 1.49739,-2.417757 4.72665,-3.295531 6.84224,-1.859851 0.92622,0.628549 0.96296,0.633116 0.96296,0.119668 0,-0.486831 0.14556,-0.526886 1.65365,-0.455049 l 1.65365,0.07877 v 5.159375 5.159374 l -1.65365,0.07877 c -1.35011,0.06431 -1.65365,0.0036 -1.65365,-0.330729 0,-0.524737 -0.076,-0.516668 -1.11808,0.118676 -1.33803,0.815795 -3.75332,0.733978 -5.15458,-0.174614 z m 4.9644,-2.213488 c 1.37438,-0.735547 1.71429,-3.173185 0.62329,-4.469773 -1.28442,-1.526448 -3.72619,-0.850794 -4.23376,1.171506 -0.56327,2.244249 1.70615,4.317428 3.61047,3.298267 z m -12.18549,-4.88695 v -7.565874 l 1.65365,0.07877 1.65365,0.07877 v 7.408333 7.408333 l -1.65365,0.07877 -1.65365,0.07877 z"
       id="path179" /></g></svg>
