<?xml version="1.0" encoding="UTF-8"?>
<svg id="Capa_1" data-name="Capa 1" xmlns="http://www.w3.org/2000/svg" viewBox="0 0 213.74 223.38">
  <defs>
    <style>
      .cls-1 {
        fill: #fff;
      }

      .cls-2 {
        fill: #33210b;
      }

      .cls-3 {
        fill: #996821;
      }

      .cls-4 {
        fill: #050402;
      }

      .cls-5 {
        fill: #d5cac0;
      }

      .cls-6 {
        fill: #f9bf01;
      }
    </style>
  </defs>
  <path class="cls-5" d="m85.87,28.83c.22-.55.46-1.6.66-1.59,5.03.17,5.16-3.54,6.13-7.05,1.96-7.05,5.4-13.36,10.9-18.4,2.6-2.38,5.03-2.45,7.39.19,5.24,5.86,8.69,12.56,9.07,20.55.24,5.04,1.6,9.98,1.12,15.09-.26,2.82-.14,5.6-.83,8.45-.77,3.17-1.06,6.72,2.9,8.63,1.69.81,1.71,2.5,1.7,4.14-.03,6,.4,12.04-1.61,17.87-.52,1.51-.57,3.09.06,4.92,4-1.93,8.07-3.59,11.84-5.75,19.25-11.04,40.3-12.89,61.76-11.72,4.65.25,9.86-.56,14.21,2.41.63.43,1.53.66,1.92,1.24,1.68,2.53-.25,17.14-2.28,19.48-9.51,10.96-21.93,17.14-35.35,21.75-2.51.86-4.85,1.48-2.08,5.16,3.29,4.37-.41,10.4-6.5,11.66-13.83,2.85-26.75-.28-39.36-5.76-3.3-1.44-6.77-2.48-10.16-3.71,3.64-2.34,2.7-4.71.43-7.56-1.21-1.51-3.94-3.07-1.23-5.83,5.16-5.27,4.78-7.4-1.9-10.11-1.93-.79-2.33-1.2-1.72-3.27,1.83-6.2,1.62-6.59-4.61-9.28-2.55-1.1-2.9-2.1-1.48-4.58,2.15-3.77.64-6.71-3.58-7.67-1.36-.31-2.84-.34-4.24-.21-3.3.31-6.05-.13-6.54-4.12-.23-1.91-1.59-1.63-2.8-1.63-2.21,0-4.42.07-6.64.11-1.04-5.87,1.64-11.71.15-17.6-.03-.13.71-.46,1.1-.7.84,1.41,2.11,1.09,3.37.85.76.09,1.71.21,1.67-.86-.05-1.15-.97-.8-1.69-.61l-1.89-.29c0-4.23,2.95-8,1.91-12.39,1.57-.15,3.14-.29,4.72-.44.27-.2.54-.4.8-.6-.25-.22-.51-.44-.76-.65-1.9.01-3.81.03-5.71.04-.27-.14-.56-.18-.86-.12Z"/>
  <path class="cls-6" d="m83.07,62.2c2.21-.04,4.42-.11,6.64-.11,1.21,0,2.56-.27,2.8,1.63.49,3.99,3.24,4.43,6.54,4.12,1.4-.13,2.88-.1,4.24.21,4.22.96,5.73,3.9,3.58,7.67-1.41,2.48-1.07,3.47,1.48,4.58,6.23,2.69,6.44,3.08,4.61,9.28-.61,2.07-.21,2.48,1.72,3.27,6.68,2.72,7.06,4.84,1.9,10.11-2.71,2.77.02,4.32,1.23,5.83,2.27,2.85,3.22,5.23-.43,7.56-4.33,2.85-2.51,6.26-.86,9.64.63,4.53-2.54,5.84-5.91,6.45-4.45.81-6.44,2.96-5.68,7.57.62,3.76-1.48,5.16-4.96,5.08-1.55-1.15-3.12-1.87-4.75-.13-3.34,1.71-4.77,6.53-9.56,5.89-1.44-.81-2.66-2.13-4.53-1.93-2.83,1.26-5.67,2.52-8.5,3.78-.58-1.25-1.39-2.17-2.93-2.07-.36-2.26-1.54-3.63-3.95-3.71-1.33-.53-.8.5-.86,1.03l.12-.08c-1.22-.52-2.15-1.09-3.78-.3-3.86,1.87-6.25.4-6.84-3.99-.43-3.23-1.63-4.26-4.55-2.39-.58-1.16-1.42-1.2-2.42-.57-1.32.03-2.64.05-3.95.08-2.9-3.14-.66-7.18-1.87-10.62.73-1.37,2.06-1.14,3.3-1.35,19.25-3.18,33.85-15.72,32.4-36.34-.23-3.24-1.4-6.17-2.36-8.92-1.72-4.94-3.86-10.33-9.96-11.98-.36-2.83-1.7-5.54-1.11-8.49.81-.86,1.63-1.72,2.44-2.58l.1-.24.25.08c2.22-.34,4.37-.09,6.4-1.99,2.57-2.4,4.49,1.09,4.67,2.34.74,5.15,2.88,3.46,5.35,1.57Z"/>
  <path class="cls-3" d="m64.98,71.51c6.1,1.65,8.24,7.04,9.96,11.98.96,2.75,2.13,5.68,2.36,8.92,1.45,20.61-13.16,33.16-32.4,36.34-1.24.21-2.57-.03-3.3,1.35-2.78-.56-5.49-.4-8.14.66-2.48-1.92-4.67-1.35-6.66.8-.78-3.5-3.63-1.8-5.3-1.67-4.59.33-8.04-1.03-10.72-4.81-.57-.81-1.08-1.5-1.09-2.42-.02-6.47-.35-12.97.24-19.38.19-2.09-.06-3.86-.38-5.77,1.59-.06,2.14-1.34,2.49-2.49,1.64-5.34,4.46-10.15,6.61-15.23,2.04-4.84,6.55-7.96,8.01-13.01,3.94-1.56,7.05-4.78,11.32-5.7.49,2.71-.85,7.09,3.13,7.2,4.63.13,3.5-4.45,3.85-7.49,2.49.19,4.98.38,7.47.57-2.39,4.94-7.05,7.86-10.66,11.69-5.56,5.9-9.74,12.66-13.66,19.65-.92,1.64-1.09,3.56,1.03,4.41,1.73.69,3.18.26,4.19-1.81,4.01-8.24,9.91-15.17,15.96-21.92,2.31-2.57,5.39-6.85,8.45-5.39,2.77,1.32,1.51,6.16.5,9.6-.46,1.57-.56,3.95,1.76,4.18,1.52.15,3.43-.69,3.79-2.82.42-2.46.79-4.94,1.18-7.41Zm-19.52,47.75c10.77-.04,19.55-5.63,22.33-14.1,1.42-4.34,1.52-8.75-2-11.81-3.92-3.41-8.87-3.9-13.7-1.55-6.55,3.19-11.32,8.26-14.74,14.66-3.46,6.47.32,14.24,8.1,12.79Z"/>
  <path class="cls-2" d="m138.02,158.41c3.28,5.49,2.23,11.25,1.09,17.02-.28.25-.56.5-.84.75-4.09,1.6-5.71,5.68-8.52,8.55-8.49,8.65-18.6,13.55-30.73,14.66-7.21.66-13.69-2.67-20.67-2.93-3.57-2.36-3.16-7.5-6.83-9.79,4.67.55,8.78-1.7,13.16-2.63,3.84,3,8.1,2.33,12.62,2.09,11.45-.62,20.37-5.73,28.31-13.61,4.48-4.44,8.46-9.24,12.42-14.1Z"/>
  <path class="cls-6" d="m36.16,31.92c.16-.46.31-.92.47-1.38,1.61.32,2.78-.19,3.42-1.76,2.59.03,2.82,2.43,3.9,3.94,1.98,2.74,2.92,6.17,5.54,8.49,2.91,5.68,4.01,5.98,8.61,2.1.81-.68,1.31-1.73,2-2.56,1.68-2,3.43-3.9,6.48-4.34-.7,5.26-2.06,10.18-1.85,15.34.13,3.03-1.13,5.13-5.04,4.69-10.17-1.15-20.4-1.12-30.63-.95-1.45.02-3.17-.81-4.36.82-.95.1-1.91.21-2.86.31-1.58-.32-2.97.11-4.52.58-3.08.93-6.8-1.52-6.89-4.24-.15-4.83-.79-9.55-2.56-14.08-.29-.75-.58-1.59.08-2.18.82-.74,1.72-.3,2.56.21,1.48.9,2.67,3.1,4.83,1.16,0,0,.08.06.08.06-.76.36-.89.89-.4,1.57,2.11,2.5,4.76,4.17,7.9,5.08,1.63.77,3.8,3.11,4.88,1.72,3.42-4.42,8.4-8.12,8.35-14.57Z"/>
  <path class="cls-6" d="m138.02,158.41c-3.96,4.86-7.94,9.66-12.42,14.1-7.94,7.87-16.86,12.98-28.31,13.61-4.51.25-8.78.91-12.62-2.09,4.8-3.18,8.65-7.38,12.51-11.56,10.84-2.1,20.28-6.68,26.64-16.03,3.3-4.85,5.93-10.15,8.86-15.24,2.43,1.57,3.57,3.8,3.65,6.68.1,3.58,2.71,6.76,1.69,10.53Z"/>
  <path class="cls-2" d="m132.68,141.2c-2.93,5.09-5.56,10.39-8.86,15.24-6.36,9.35-15.8,13.93-26.64,16.03,1.65-5.88,1.87-11.99,2.9-17.97,1.11.17,2.18.22,3.12-.59,4.37-3.78,8.82-7.46,13.1-11.33,3.71-3.35,5.68-7.77,6.95-12.52,5.73,1.52,8.29,5.73,9.43,11.14Z"/>
  <path class="cls-6" d="m78.34,196.46c6.98.26,13.46,3.6,20.67,2.93,12.13-1.11,22.24-6.02,30.73-14.66,2.82-2.87,4.43-6.95,8.52-8.55.21.15.44.27.69.35-.8,6.45-.96,13.05-4.62,18.8-1.66-.1-3.21.51-4.31,1.58-8.71,8.4-19.28,11.41-31.08,11.08-3.47-.1-6.95-.03-10.43-.03-3.86-3.41-7.77-6.79-10.17-11.49Z"/>
  <path class="cls-2" d="m88.51,207.95c3.48,0,6.95-.06,10.43.03,11.81.33,22.38-2.69,31.08-11.08,1.11-1.07,2.65-1.67,4.31-1.58,1.32,5.48-2.6,9.3-4.53,13.7-.9,2.05-2.75,3.67-4.16,5.49-7.04,1.32-14.01,3.11-21.18,3.66-4.49,1.82-6.16-2.67-9.06-4.26-2.6-1.43-4.62-3.93-6.89-5.96Z"/>
  <path class="cls-4" d="m24.72,56.3c1.19-1.63,2.91-.79,4.36-.82,10.22-.17,20.46-.2,30.63.95,3.91.44,5.17-1.66,5.04-4.69-.22-5.16,1.15-10.08,1.85-15.34-3.04.44-4.8,2.35-6.48,4.34-.7.83-1.19,1.87-2,2.56-4.6,3.88-5.71,3.58-8.61-2.1.13-.82.23-1.66,1.11-2.09,2.85,2.73,5.5,2.92,8.34-.22,3.19-3.53,6.65-6.81,10-10.2.53-.62,1.05-1.25,1.58-1.87.94.29,1.54.95,1.93,1.82,0,.34.01.69.02,1.03-3.59,3.82-1.58,9.15-3.73,13.5-2.61,5.3.07,11.54-2.08,17.08,0,0-.25-.08-.25-.08,0,0-.1.24-.1.25-1.45-.1-2.9-.21-4.35-.31-.32-.16-.64-.32-.97-.49-1.47-.71-2.99-.43-4.5-.24-1.67-.26-3.37-.84-5.01-.7-2.27.19-5.05-.81-6.51,2.07-.35,3.04.78,7.62-3.85,7.49-3.98-.11-2.64-4.49-3.13-7.2-.98-2.35-2.81-2.95-5.23-2.81-2.33.14-4.69-.06-7.03-.1.09-.85-.27-1.45-1.01-1.84Z"/>
  <path class="cls-4" d="m15.35,38.05c-2.17,1.94-3.35-.26-4.83-1.16-.84-.51-1.73-.95-2.56-.21-.66.59-.37,1.44-.08,2.18,1.77,4.53,2.41,9.25,2.56,14.08.09,2.72,3.81,5.17,6.89,4.24,1.55-.47,2.94-.89,4.52-.58.08.87.45,1.51,1.34,1.75-8.2,5.75-14.92,13.16-22.43,20.51-1.62-4.58-.3-7.89,2.33-10.86,1.36-1.54,2.86-2.97,4.39-4.34,1.43-1.28,2.35-2.28.33-3.99-.78-.66-1.15-2.28-1.08-3.42.44-6.61-1.2-12.99-1.84-19.48-.22-2.25-2.51-3.29-2.21-5.5.19-.6.38-1.21.57-1.81,1.67-1.03,3.26-2.12,3.33-4.37.36-.4.71-.8,1.07-1.21-.25,6.25,4.75,9.64,7.68,14.16Z"/>
  <path class="cls-4" d="m100.08,154.51c-1.03,5.98-1.25,12.09-2.9,17.97-3.86,4.19-7.72,8.38-12.51,11.56-4.38.93-8.49,3.18-13.16,2.63-.16.03-.33.12-.46.08-2.03-.53-5.43,1.69-5.94-1.42-.51-3.14,2.96-2.89,5.21-3.35.55-.11,1.02-.64,1.53-.97,6.43,1.49,11.23-1.68,15.79-5.54,1.59.06,2-1.21,2.63-2.28,2.69-4.52,3.96-9.44,4.18-14.67,1.83-4.43.69-9.02.76-13.55,1.63-1.74,3.2-1.02,4.75.13.04,3.14.08,6.28.12,9.41Z"/>
  <path class="cls-3" d="m100.08,154.51c-.04-3.14-.08-6.28-.12-9.41,3.48.08,5.57-1.32,4.96-5.08-.76-4.61,1.23-6.76,5.68-7.57,3.37-.61,6.55-1.93,5.91-6.45,2.33,1.21,5.6.87,6.73,4.07-1.27,4.76-3.23,9.17-6.95,12.52-4.29,3.87-8.73,7.55-13.1,11.33-.94.81-2.01.76-3.12.59Z"/>
  <path class="cls-4" d="m26.66,66.76c-1.46,5.06-5.97,8.18-8.01,13.01-2.15,5.09-4.97,9.89-6.61,15.23-.35,1.15-.9,2.43-2.49,2.49-.5-.21-1.07-.38-.72-1.13.13-.07.38-.18.37-.22-.06-.24-.18-.47-.27-.7-1.1-9.54.98-18.18,8.04-24.96,2.5-2.39,5.82-4.13,9.68-3.73Z"/>
  <path class="cls-4" d="m81.14,148.92c1.87-.2,3.09,1.12,4.53,1.93-.08,2.88-1.62,5.56-1.14,8.51-1.26,3.7-2.83,7.19-6.07,9.68-1.09.84-2.19,1.82-2.23,3.41-2.05.3-4.4-.17-5.65,2.19-2.29.76-4.33,2.22-7.02,1.81-1.7-.26-2.52-.66-2.46-2.52.05-1.51.16-3.31,1.89-3.1,3.21.39,4.98-2.01,7.42-3.07,4.73-.77,7.51-3.36,7.83-8.29,1.96-.83,2.09-2.5,1.9-4.27-.23-2.2.39-4.24.99-6.3Z"/>
  <path class="cls-4" d="m65.76,146.93c2.41.08,3.59,1.46,3.95,3.71-.6,8.56-11.74,15.18-18.35,15.21-1.18,0-2.63.4-2.69-1.64-.04-1.41.29-2.71,1.75-2.92,7.97-1.14,12.81-5.59,14.59-13.41,0,0-.12.08-.12.08.98.23.68-.6.87-1.03Z"/>
  <path class="cls-4" d="m26.79,131.55c2-2.15,4.18-2.71,6.66-.8-.03.16,0,.38-.09.46-5.84,4.99-5.29,11.73-5.03,18.39.03.79.02,1.58-.73,2.11-.3.25-.59.5-.89.74-.34,0-.68.01-1.02.02-.32-.25-.64-.49-.97-.74-2.68-4.98-1.11-10.21-.89-15.36,2.09-.03,1.81-1.56,1.83-2.9.16-.77-.07-1.77,1.13-1.93Z"/>
  <path class="cls-6" d="m104.46,218.18c7.18-.55,14.14-2.34,21.18-3.66-3.4,9.15-9.42,11.26-17.35,6.12-1.27-.83-2.95-1.02-3.83-2.46Z"/>
  <path class="cls-6" d="m70.57,174.66c1.25-2.36,3.6-1.89,5.65-2.19,3.48,2.25,7.91.88,11.42,2.99-4.56,3.86-9.36,7.02-15.79,5.54-.56-2.09.64-4.53-1.29-6.34Z"/>
  <path class="cls-4" d="m43.46,140.71c1.32-.03,2.64-.05,3.95-.08.09.49.18.98.27,1.48-.78.44-1.02,1.13-.94,1.98-2.16,3.99-4.47,7.9-4.04,12.74.12,1.39-.77,2.43-2.3,2.3-1.52-.12-1.98-1.27-2.05-2.66-.32-5.91,1.23-11.2,5.1-15.75Z"/>
  <path class="cls-4" d="m36.16,31.92c.05,6.45-4.94,10.15-8.35,14.57-1.08,1.4-3.25-.95-4.88-1.72-.24-1.62,2.01-1.92,1.85-3.5,4.71-2,6.99-6.96,11.38-9.35Z"/>
  <path class="cls-3" d="m81.14,148.92c-.6,2.06-1.22,4.1-.99,6.3.18,1.76.06,3.44-1.9,4.27-2.19-.04-4.38-.07-6.57-.11.32-2.22.65-4.45.97-6.67,2.83-1.26,5.67-2.52,8.5-3.78Z"/>
  <path class="cls-2" d="m71.66,159.38c2.19.04,4.38.07,6.57.11-.32,4.93-3.11,7.53-7.83,8.29.42-2.8.84-5.6,1.26-8.4Z"/>
  <path class="cls-2" d="m50.6,39.12c-.88.43-.98,1.27-1.11,2.09-2.62-2.32-3.57-5.75-5.54-8.49-1.09-1.51-1.32-3.91-3.9-3.94.37-2.76,3.23-1.66,4.56-2.93.05,3.5,1.81,6.19,3.7,9,.85,1.26,2.52,2.35,2.29,4.28Z"/>
  <path class="cls-4" d="m44.61,25.85c-1.33,1.27-4.19.17-4.56,2.93-.63,1.57-1.81,2.08-3.42,1.76,1.69-2.55-1.2-5-.15-7.54.57,0,1.14,0,1.71,0,1.67,1.45,3.67.91,5.58.93.31.32.62.63.92.95-.03.32-.06.65-.09.97Z"/>
  <path class="cls-2" d="m24.78,41.27c.16,1.58-2.09,1.88-1.85,3.5-3.13-.91-5.79-2.58-7.9-5.08.41-.5.82-1,1.23-1.51,2.96.71,5.12,3.59,8.52,3.09Z"/>
  <path class="cls-2" d="m70.51,26.83c-.53.62-1.05,1.25-1.58,1.87-.02-2.18-1.5-4.93,1.21-6.21,2.4-1.14,5.06-.74,7.07,1.44-.31.3-.62.6-.93.9-2.38-.66-5.33-2.95-5.78,2Z"/>
  <path class="cls-5" d="m6.6,25.1c-.07,2.25-1.66,3.34-3.33,4.37-.84-.26-1.68-.52-2.51-.77-.57-.07-.82-.4-.75-.97,1.12-.03,1.74-.69,2.07-1.69.43-.5.36-.9-.22-1.22,0,0-.03.03-.03.03,1.53,1.25,3.21-.56,4.76.25Z"/>
  <path class="cls-4" d="m37.05,19.13c1.01-1.48,2.34-2.53,4.09-2.98.83.02,1.66.03,2.49.05.61.52,1.23,1.05,1.84,1.57-.37.32-.73.65-1.1.97-2.51-1.57-4.32.02-6.18,1.37-.38-.33-.77-.66-1.15-.99Z"/>
  <path class="cls-4" d="m92.4,30.17c-1.57.15-3.14.29-4.72.44-.31-.12-.62-.23-.92-.35,0-.43-.02-.87-.03-1.3,1.9-.01,3.81-.03,5.71-.04-.01.42-.03.84-.04,1.26Z"/>
  <path class="cls-2" d="m44.7,24.87c-.31-.32-.62-.63-.92-.95.33-.62.66-1.24.98-1.86,1.27-.99,1.41-1.93-.14-2.77-.23-.12-.31-.3-.24-.54.37-.32.73-.65,1.1-.97,2.39,2.66,1.21,4.92-.78,7.1Z"/>
  <path class="cls-2" d="m6.6,25.1c-1.55-.81-3.23,1-4.76-.25,1.6-2.41,3.61-2.31,5.83-.96-.36.4-.71.8-1.07,1.21Z"/>
  <path class="cls-4" d="m76.29,24.83c.31-.3.62-.6.93-.9,1.77,1.36.72,3.12.69,4.74-.38-.31-.77-.62-1.15-.94-.15-.97-.31-1.93-.46-2.9Z"/>
  <path class="cls-2" d="m37.05,19.13c.38.33.77.66,1.15.99,0,.96,0,1.92,0,2.87-.57,0-1.14,0-1.71,0-.19-1.34-.7-2.74.57-3.87Z"/>
  <path class="cls-2" d="m23.2,58.36c-.89-.24-1.27-.88-1.34-1.75.95-.1,1.91-.21,2.86-.31.74.39,1.1.99,1.01,1.84-.8.57-1.65.5-2.53.22Z"/>
  <path class="cls-4" d="m87.68,44.75c-1.25.24-2.53.56-3.37-.85.49-.3.97-.6,1.46-.91.63.1,1.26.19,1.89.29,0,.49.01.98.02,1.47Z"/>
  <path class="cls-2" d="m76.75,27.73c.38.31.77.62,1.15.94-1.52,1.89-3.68.42-5.45,1.02,0-.35-.01-.69-.02-1.03,1.53.14,3.17.74,4.31-.92Z"/>
  <path class="cls-2" d="m25.66,133.47c-.02,1.34.26,2.86-1.83,2.9-.27-1.52.71-2.25,1.83-2.9Z"/>
  <path class="cls-3" d="m.76,28.7c.84.26,1.67.52,2.51.77-.19.61-.38,1.21-.57,1.82-1.37-.32-1.39-1.65-1.94-2.59Z"/>
  <path class="cls-3" d="m47.69,142.11c-.09-.49-.18-.99-.27-1.48,1-.64,1.84-.59,2.42.57-.37.31-.74.61-1.11.92-.35,0-.69,0-1.04,0Z"/>
  <path class="cls-3" d="m43.64,16.2c-.83-.02-1.66-.03-2.49-.05.86-1.07,1.69-1.04,2.49.05Z"/>
  <path class="cls-2" d="m47.69,142.11c.35,0,.69,0,1.04,0-.66.66-1.32,1.32-1.98,1.97-.08-.85.15-1.54.94-1.98Z"/>
  <path class="cls-3" d="m2.09,26.05c-.34,1-.95,1.65-2.07,1.69.08-.69-.23-1.57.84-1.81.41.04.83.08,1.24.12Z"/>
  <path class="cls-2" d="m86.74,28.95c0,.43.02.87.03,1.3-1.33.18-.78-.83-.89-1.42.3-.06.59-.02.86.11Z"/>
  <path class="cls-2" d="m26.72,152.45c.3-.25.59-.5.89-.74.04.65-.24.92-.89.74Z"/>
  <path class="cls-2" d="m8.93,95.44c.1.23.22.46.27.7,0,.04-.24.14-.37.22.03-.31.06-.61.1-.92Z"/>
  <path class="cls-2" d="m2.09,26.05c-.41-.04-.82-.08-1.24-.12.34-.36.68-.73,1.02-1.09.57.32.65.72.22,1.22Z"/>
  <path class="cls-5" d="m138.96,176.53c-.25-.08-.48-.19-.69-.35.28-.25.56-.5.84-.75-.05.37-.1.73-.15,1.1Z"/>
  <path class="cls-4" d="m16.26,38.18c-.41.5-.82,1-1.23,1.51-.49-.68-.36-1.2.4-1.57.28.02.56.04.84.06Z"/>
  <path class="cls-2" d="m24.73,151.73c.32.25.65.49.97.74-.67.21-.89-.18-.97-.74Z"/>
  <path class="cls-2" d="m87.68,44.75c0-.49-.01-.98-.02-1.47.72-.2,1.64-.54,1.69.61.04,1.07-.91.95-1.67.86Z"/>
  <path class="cls-2" d="m92.4,30.17c.01-.42.03-.84.04-1.26.25.22.51.44.76.66-.27.2-.54.4-.8.6Z"/>
  <path class="cls-4" d="m64.98,71.51c-.39,2.47-.77,4.94-1.18,7.41-.36,2.13-2.27,2.97-3.79,2.82-2.33-.23-2.22-2.61-1.76-4.18,1.01-3.43,2.27-8.28-.5-9.6-3.06-1.46-6.14,2.82-8.45,5.39-6.05,6.75-11.96,13.68-15.96,21.92-1.01,2.07-2.47,2.49-4.19,1.81-2.13-.85-1.95-2.77-1.03-4.41,3.92-6.98,8.11-13.75,13.66-19.65,3.61-3.83,8.27-6.75,10.66-11.69,1.31-.19,2.62-.39,3.94-.58,1.46.07,2.91.14,4.37.22.41.04.82.07,1.24.11.63.65,1.26,1.29,1.89,1.94-.58,2.96.75,5.66,1.11,8.49Z"/>
  <path class="cls-3" d="m84.52,159.37c-.48-2.95,1.06-5.64,1.14-8.51,4.79.64,6.21-4.18,9.56-5.89-.07,4.53,1.07,9.12-.76,13.55-3.31.3-6.48,2.17-9.93.86Z"/>
  <path class="cls-1" d="m63.87,63.01c-.63-.65-1.26-1.29-1.89-1.94,0-.32-.02-.64-.02-.96,1.45.1,2.9.21,4.35.31-.81.86-1.62,1.72-2.44,2.58Z"/>
  <path class="cls-5" d="m65.76,146.93c-.19.43.11,1.26-.87,1.03.07-.53-.47-1.56.87-1.03Z"/>
  <path class="cls-4" d="m45.46,119.25c-7.78,1.45-11.56-6.32-8.1-12.79,3.42-6.4,8.19-11.46,14.74-14.66,4.82-2.35,9.78-1.86,13.7,1.55,3.51,3.06,3.42,7.47,2,11.81-2.78,8.47-11.56,14.06-22.33,14.1Zm6.02-20.28c-.06,1.74-.3,3.28,2.23,3.14,2.95-.17,4.92-1.84,5.16-4.36.24-2.51-2.33-1.19-3.59-1.29-1.79-.14-4.51-.99-3.81,2.51Z"/>
  <path class="cls-5" d="m56.37,60.75c-1.31.19-2.62.39-3.94.58-2.49-.19-4.98-.38-7.47-.57,1.45-2.88,4.24-1.88,6.51-2.07,1.64-.14,3.34.44,5.01.7-.04.45-.07.9-.11,1.35Z"/>
  <path class="cls-5" d="m76.75,27.73c-1.15,1.66-2.78,1.06-4.31.92-.39-.88-.98-1.53-1.93-1.82.45-4.94,3.4-2.66,5.78-2,.15.97.31,1.93.46,2.9Z"/>
  <path class="cls-3" d="m56.37,60.75c.03-.45.07-.9.11-1.35,1.52-.19,3.04-.47,4.51.24-.08.44-.16.89-.25,1.33-1.46-.07-2.91-.14-4.37-.22Z"/>
  <path class="cls-5" d="m60.74,60.97c.08-.44.16-.89.25-1.33.32.16.64.32.97.49,0,.32.02.64.02.96-.41-.04-.82-.07-1.24-.11Z"/>
  <path class="cls-2" d="m84.52,159.37c3.45,1.31,6.62-.56,9.93-.86-.22,5.22-1.49,10.14-4.18,14.67-.64,1.07-1.04,2.35-2.63,2.28-3.52-2.11-7.95-.74-11.42-2.99.05-1.59,1.14-2.58,2.23-3.41,3.25-2.49,4.81-5.98,6.07-9.68Z"/>
  <path class="cls-5" d="m38.2,22.99c0-.96,0-1.91,0-2.87,1.86-1.35,3.67-2.95,6.18-1.37-.07.25.01.43.24.54.05.92.1,1.85.14,2.77-.33.62-.66,1.24-.98,1.86-1.91-.02-3.91.52-5.58-.93Z"/>
  <path class="cls-3" d="m44.76,22.06c-.05-.92-.1-1.85-.14-2.77,1.55.85,1.41,1.78.14,2.77Z"/>
  <path class="cls-1" d="m51.49,98.97c-.71-3.5,2.02-2.65,3.81-2.51,1.26.1,3.84-1.22,3.59,1.29-.25,2.52-2.21,4.19-5.16,4.36-2.54.14-2.29-1.4-2.23-3.14Z"/>
</svg>